<svg id="Layer_1" data-name="Layer 1" xmlns="http://www.w3.org/2000/svg" xmlns:xlink="http://www.w3.org/1999/xlink" viewBox="0 0 202.18 264.54"><defs><style>.cls-1{fill:none;}.cls-2{clip-path:url(#clip-path);}.cls-3{fill:#f2a341;}.cls-4{clip-path:url(#clip-path-2);}.cls-5{fill:#6fa8bf;}.cls-6{clip-path:url(#clip-path-3);}.cls-7{fill:#f2e41d;}</style><clipPath id="clip-path" transform="translate(-12.1 23.49)"><path class="cls-1" d="M44.29,153.52l20.52,35.54a14.61,14.61,0,0,0,12.64,7.3h82.08a14.6,14.6,0,0,0,12.64-7.3l20.52-35.54L148.15,127.8a59.35,59.35,0,0,0-59.32,0Z"/></clipPath><clipPath id="clip-path-2" transform="translate(-12.1 23.49)"><path class="cls-1" d="M41.93,148.48,21.41,112.94a14.62,14.62,0,0,1,0-14.59l41-71.09A14.62,14.62,0,0,1,75.09,20h41V71.39a59.31,59.31,0,0,1-29.66,51.38Z"/></clipPath><clipPath id="clip-path-3" transform="translate(-12.1 23.49)"><path class="cls-1" d="M195.78,148.48l20.52-35.54a14.57,14.57,0,0,0,0-14.59l-41-71.09A14.62,14.62,0,0,0,162.62,20h-41V71.39a59.34,59.34,0,0,0,29.66,51.38Z"/></clipPath></defs><g class="cls-2"><path class="cls-3" d="M178.59,217.14a96.89,96.89,0,0,1-13.16,10.51l-.13.1a2.69,2.69,0,0,0-.82,3.64,2.64,2.64,0,0,0,2.28,1.29,2.58,2.58,0,0,0,1.38-.39l.25-.16a101.62,101.62,0,0,0,13.85-11.08,2.71,2.71,0,0,0,.11-3.8A2.64,2.64,0,0,0,178.59,217.14Z" transform="translate(-12.1 23.49)"/><path class="cls-3" d="M165.29,227.76h0l.06-.05Z" transform="translate(-12.1 23.49)"/><path class="cls-3" d="M207.69,173.54a2.65,2.65,0,0,0-3.33,1.78,97.12,97.12,0,0,1-19.54,35.28,2.72,2.72,0,0,0,.24,3.8,2.65,2.65,0,0,0,3.76-.24A102.62,102.62,0,0,0,203,193.09a104.25,104.25,0,0,0,6.48-16.18A2.7,2.7,0,0,0,207.69,173.54Z" transform="translate(-12.1 23.49)"/><path class="cls-3" d="M89.06-13.73a2.6,2.6,0,0,0,1-.22c3.45-1.49,7-2.85,10.59-4.05a2.7,2.7,0,0,0,1.69-3.4A2.65,2.65,0,0,0,99-23.11c-3.72,1.24-7.43,2.66-11,4.21a2.71,2.71,0,0,0-1.4,3.54A2.67,2.67,0,0,0,89.06-13.73Z" transform="translate(-12.1 23.49)"/><path class="cls-3" d="M27.78,31.23a2.65,2.65,0,0,0,2-.95,158.22,158.22,0,0,1,47.24-38,2.72,2.72,0,0,0,1.12-3.64,2.66,2.66,0,0,0-3.6-1.13A163.52,163.52,0,0,0,25.75,26.8a2.71,2.71,0,0,0,.31,3.79A2.63,2.63,0,0,0,27.78,31.23Z" transform="translate(-12.1 23.49)"/><path class="cls-3" d="M108.48-9.29a2.62,2.62,0,0,0,.73-.1,122.77,122.77,0,0,1,33.4-4.78,2.68,2.68,0,0,0,2.65-2.71,2.68,2.68,0,0,0-2.66-2.68h0a128.14,128.14,0,0,0-34.83,5,2.69,2.69,0,0,0-1.83,3.32A2.67,2.67,0,0,0,108.48-9.29Z" transform="translate(-12.1 23.49)"/><path class="cls-3" d="M92.19-9a158.89,158.89,0,0,0-47.5,31.2,2.7,2.7,0,0,0-.1,3.8,2.64,2.64,0,0,0,3.76.1A153.76,153.76,0,0,1,94.28-4a2.7,2.7,0,0,0,1.4-3.53A2.65,2.65,0,0,0,92.19-9Z" transform="translate(-12.1 23.49)"/><path class="cls-3" d="M14.24,69.51a2.61,2.61,0,0,0,1.17.28,2.67,2.67,0,0,0,2.39-1.51c1.13-2.34,2.41-4.79,3.81-7.3A150.69,150.69,0,0,1,36.73,38.69a2.71,2.71,0,0,0-.35-3.79,2.63,2.63,0,0,0-3.74.35A156.09,156.09,0,0,0,17,58.34c-1.45,2.6-2.78,5.15-3.95,7.57A2.7,2.7,0,0,0,14.24,69.51Z" transform="translate(-12.1 23.49)"/><path class="cls-3" d="M17,96a32.38,32.38,0,0,0,4.06-7.87,134.19,134.19,0,0,1,9.79-21.84C46.09,39,68.83,18.64,98.46,5.86a113.41,113.41,0,0,1,71-6.23,2.65,2.65,0,0,0,3.19-2,2.68,2.68,0,0,0-2-3.23A118.5,118.5,0,0,0,96.37.91C65.64,14.17,42,35.27,26.24,63.63A139,139,0,0,0,16.06,86.34a26.52,26.52,0,0,1-3.39,6.54s-1.58,2.6.48,3.93S17,96,17,96Z" transform="translate(-12.1 23.49)"/><path class="cls-3" d="M13.66,117.94a2.54,2.54,0,0,0,1.16.28,2.66,2.66,0,0,0,2.4-1.52,103.33,103.33,0,0,1,11.8-19,2.84,2.84,0,0,0,.46-.9A123.37,123.37,0,0,1,40.15,71.56c14-25.19,35.06-44,62.48-55.79A103,103,0,0,1,188,17.52a2.64,2.64,0,0,0,3.54-1.27,2.7,2.7,0,0,0-1.26-3.59,108.16,108.16,0,0,0-89.71-1.85C72,23.13,50.14,42.67,35.51,68.92a128.93,128.93,0,0,0-11,25.89,109.08,109.08,0,0,0-12.1,19.53A2.71,2.71,0,0,0,13.66,117.94Z" transform="translate(-12.1 23.49)"/><path class="cls-3" d="M39.13,101.88a111.91,111.91,0,0,1,10.29-25c12.87-23.08,32.17-40.3,57.39-51.17a91.6,91.6,0,0,1,36.53-7.55,92.94,92.94,0,0,1,57,19.63,2.63,2.63,0,0,0,3.73-.49,2.7,2.7,0,0,0-.48-3.77,98.17,98.17,0,0,0-60.21-20.76,97,97,0,0,0-38.62,8C78.4,32.07,58.24,50.07,44.79,74.2A117.09,117.09,0,0,0,34.15,99.88,99.91,99.91,0,0,0,12.39,153,2.68,2.68,0,0,0,14.77,156H15a2.68,2.68,0,0,0,2.65-2.42,94.48,94.48,0,0,1,20.92-50.7A2.62,2.62,0,0,0,39.13,101.88Z" transform="translate(-12.1 23.49)"/><path class="cls-3" d="M32.63,191a84.32,84.32,0,0,1,15.6-82.94,2.63,2.63,0,0,0,.57-1.1,102.13,102.13,0,0,1,9.89-24.81C70.39,61.17,88,45.51,111,35.58a81.89,81.89,0,0,1,96.18,23.85,2.65,2.65,0,0,0,3.75.38,2.72,2.72,0,0,0,.37-3.79A87.14,87.14,0,0,0,108.89,30.63C84.79,41,66.34,57.47,54.06,79.49A107.65,107.65,0,0,0,43.8,105a89.75,89.75,0,0,0-16.18,87.8A88.13,88.13,0,0,0,44.2,221.38a2.63,2.63,0,0,0,3.75.25,2.7,2.7,0,0,0,.25-3.79A83.13,83.13,0,0,1,32.63,191Z" transform="translate(-12.1 23.49)"/><path class="cls-3" d="M192.41,190.11a96.86,96.86,0,0,0,6.91-15.18,2.7,2.7,0,0,0-1.61-3.45,2.65,2.65,0,0,0-3.4,1.63,92.1,92.1,0,0,1-6.53,14.35c-11.49,20.57-29.43,35.37-53.3,44a71.16,71.16,0,0,1-24.14,4.21,72,72,0,0,1-67.68-48.27A74.13,74.13,0,0,1,57.88,113.3a2.65,2.65,0,0,0,.64-1.23A92,92,0,0,1,68,87.42c10.51-18.85,26.38-33,47.18-41.93a71,71,0,0,1,28.19-5.83,71.94,71.94,0,0,1,65.48,42.75,2.65,2.65,0,0,0,3.52,1.34,2.7,2.7,0,0,0,1.33-3.56,77.26,77.26,0,0,0-70.33-45.91,76.08,76.08,0,0,0-30.27,6.26C91.16,50,74.43,64.87,63.33,84.78a97.07,97.07,0,0,0-9.83,25.38,78.58,78.58,0,0,0-15.86,79,77.4,77.4,0,0,0,72.7,51.86,76.3,76.3,0,0,0,25.92-4.53C161.38,227.45,180.27,211.84,192.41,190.11Z" transform="translate(-12.1 23.49)"/><path class="cls-3" d="M212.33,140.82a2.65,2.65,0,0,0-3.52,1.36,72.52,72.52,0,0,1-10.44,16.9,2.72,2.72,0,0,0,.34,3.8,2.65,2.65,0,0,0,3.75-.35,78,78,0,0,0,11.21-18.16A2.7,2.7,0,0,0,212.33,140.82Z" transform="translate(-12.1 23.49)"/><path class="cls-3" d="M143.34,45.05a65.44,65.44,0,0,0-26.09,5.39c-19.7,8.5-34.72,21.83-44.64,39.63a86.27,86.27,0,0,0-9.35,25.35,68.15,68.15,0,0,0-15.59,70.15,66.71,66.71,0,0,0,62.67,44.71,65.61,65.61,0,0,0,22.35-3.91c22.63-8.16,39.61-22.14,50.46-41.56A85.47,85.47,0,0,0,193,157.18,68.18,68.18,0,0,0,204.55,86,66.43,66.43,0,0,0,143.34,45.05Zm45.16,109.1a2.79,2.79,0,0,0-.66,1.37,80.13,80.13,0,0,1-9.32,26.64c-10.21,18.26-26.23,31.43-47.62,39.14a60.39,60.39,0,0,1-20.56,3.6,61.39,61.39,0,0,1-57.66-41.13,62.73,62.73,0,0,1,14.89-65.1,2.63,2.63,0,0,0,.75-1.41,80.85,80.85,0,0,1,8.93-24.55C86.58,76,100.74,63.42,119.33,55.4a60.21,60.21,0,0,1,24-5,61.12,61.12,0,0,1,56.31,37.64A62.72,62.72,0,0,1,188.5,154.15Z" transform="translate(-12.1 23.49)"/><path class="cls-3" d="M143.34,55.82a55,55,0,0,0-21.92,4.53c-17.49,7.55-30.8,19.32-39.54,35a76.41,76.41,0,0,0-8.78,25.45A57.37,57.37,0,0,0,57.7,182a56,56,0,0,0,52.64,37.55,55.15,55.15,0,0,0,18.77-3.28c20.15-7.27,35.22-19.62,44.78-36.72A75.41,75.41,0,0,0,183,152.24a57.46,57.46,0,0,0,11.81-62.06A55.82,55.82,0,0,0,143.34,55.82Zm35.23,93.23a2.7,2.7,0,0,0-.78,1.59,70.39,70.39,0,0,1-8.53,26.22c-8.92,15.94-23,27.48-41.94,34.3a50,50,0,0,1-17,3,50.72,50.72,0,0,1-47.63-34,51.92,51.92,0,0,1,14.61-55.93,2.69,2.69,0,0,0,.9-1.63A71,71,0,0,1,86.52,98c8.15-14.62,20.6-25.63,37-32.7a49.81,49.81,0,0,1,19.83-4.1,50.5,50.5,0,0,1,46.52,31.09A52,52,0,0,1,178.57,149.05Z" transform="translate(-12.1 23.49)"/><path class="cls-3" d="M143.34,66.59a44.42,44.42,0,0,0-17.74,3.67c-15.29,6.59-26.88,16.82-34.44,30.39a66.62,66.62,0,0,0-8.07,25.78,46.28,46.28,0,0,0-15.37,51.91,45.37,45.37,0,0,0,42.62,30.4,44.59,44.59,0,0,0,15.2-2.66c17.67-6.37,30.82-17.09,39.08-31.87a66,66,0,0,0,8.19-27.12A46.36,46.36,0,0,0,185,94.41,45.16,45.16,0,0,0,143.34,66.59Zm25.22,77.08a2.68,2.68,0,0,0-1,1.89,60.72,60.72,0,0,1-7.6,26c-7.62,13.63-19.81,23.54-36.24,29.46a39.36,39.36,0,0,1-13.41,2.35,40,40,0,0,1-37.6-26.83,40.82,40.82,0,0,1,14.42-46.45,2.68,2.68,0,0,0,1.11-1.94,61.74,61.74,0,0,1,7.52-24.85c7-12.51,17.71-22,31.9-28.08A39.24,39.24,0,0,1,143.34,72a39.87,39.87,0,0,1,36.73,24.55A40.91,40.91,0,0,1,168.56,143.67Z" transform="translate(-12.1 23.49)"/><path class="cls-3" d="M143.34,77.35a2.7,2.7,0,0,0,0,5.39,29.25,29.25,0,0,1,26.94,18,29.91,29.91,0,0,1-11.85,37,2.71,2.71,0,0,0-1.29,2.29c0,6.95-.82,16.22-6.41,26.22-6.33,11.3-16.6,19.59-30.56,24.62a28.94,28.94,0,0,1-9.83,1.72,29.36,29.36,0,0,1-27.57-19.67,29.8,29.8,0,0,1,14.36-36.38,2.67,2.67,0,0,0,1.46-2.35,53.17,53.17,0,0,1,6.48-25.61c5.79-10.4,14.81-18.3,26.79-23.47a2.71,2.71,0,0,0,1.41-3.53,2.66,2.66,0,0,0-3.5-1.42c-13.08,5.65-23,14.32-29.34,25.78a57.58,57.58,0,0,0-7.12,26.56,35.26,35.26,0,0,0-15.56,42.23A34.71,34.71,0,0,0,110.34,198a34.14,34.14,0,0,0,11.62-2c15.19-5.48,26.43-14.58,33.4-27a56.57,56.57,0,0,0,7.08-27.35,35.38,35.38,0,0,0,12.73-42.92A34.56,34.56,0,0,0,143.34,77.35Z" transform="translate(-12.1 23.49)"/><path class="cls-3" d="M152.74,134.65a24.37,24.37,0,0,0,12.64-31.8,23.93,23.93,0,0,0-22-14.73A23.58,23.58,0,0,0,134,90.07c-10.88,4.69-19,11.81-24.25,21.16-5.9,10.6-5.83,20.56-5.79,26.52,0,.44,0,1.1,0,1.74-.41.19-.94.42-1.61.66a24.34,24.34,0,0,0-14.52,31,23.82,23.82,0,0,0,30.61,14.69c12.71-4.59,22-12.06,27.7-22.2,5.83-10.43,5.77-19.92,5.72-26.22,0-.56,0-1.5,0-2.29C152.06,135,152.36,134.81,152.74,134.65Zm-2.09-5a11.16,11.16,0,0,0-3.23,1.95,2.62,2.62,0,0,0-.84,1.7c-.1.92-.1,2.52-.09,4.1,0,5.71.1,14.33-5,23.51-5,9-13.39,15.64-24.86,19.77a18.34,18.34,0,0,1-6.26,1.1A18.69,18.69,0,0,1,92.79,169.3a18.93,18.93,0,0,1,11.3-24.08,16.43,16.43,0,0,0,4-1.95,2.7,2.7,0,0,0,1.12-2c.06-1,0-2.58,0-3.52,0-5.42-.1-14.49,5.11-23.84C119,105.58,126.26,99.24,136,95a18.36,18.36,0,0,1,7.3-1.51A18.61,18.61,0,0,1,160.48,105,19,19,0,0,1,150.65,129.69Z" transform="translate(-12.1 23.49)"/><path class="cls-3" d="M148.31,99.87a13.08,13.08,0,0,0-10.18.1,46.25,46.25,0,0,0-8.63,4.84,2.73,2.73,0,0,0-.62,3.76,2.65,2.65,0,0,0,3.71.63,40.13,40.13,0,0,1,7.62-4.27,7.85,7.85,0,0,1,6.11-.07,8,8,0,0,1,4.37,4.33,8.12,8.12,0,0,1-4.21,10.6c-4.27,1.84-7.28,4.29-9,7.3s-1.71,5.75-1.67,10.44a55.46,55.46,0,0,1-.43,8.6,2.68,2.68,0,0,0,2.23,3.06,2.83,2.83,0,0,0,.41,0,2.67,2.67,0,0,0,2.63-2.28,59.15,59.15,0,0,0,.48-9.46c0-4.27.05-6,1-7.74,1.09-2,3.24-3.64,6.4-5a13.54,13.54,0,0,0,7-17.66A13.3,13.3,0,0,0,148.31,99.87Z" transform="translate(-12.1 23.49)"/><path class="cls-3" d="M125.17,163.93A41.09,41.09,0,0,1,113,170.58a7.94,7.94,0,0,1-10.2-4.9,8.11,8.11,0,0,1,4.84-10.32c5.27-1.9,8.85-4.48,10.64-7.67,1.63-2.92,1.61-5.91,1.58-10.06,0-5.17-.09-11.62,3.73-18.47a2.7,2.7,0,0,0-1-3.67,2.64,2.64,0,0,0-3.62,1c-4.52,8.1-4.46,15.64-4.43,21.15,0,4.14,0,5.85-.89,7.37-1.12,2-3.81,3.82-7.79,5.25a13.52,13.52,0,0,0-8.06,17.2,13.34,13.34,0,0,0,12.53,8.95,13.16,13.16,0,0,0,4.47-.79,46.68,46.68,0,0,0,13.7-7.52,2.73,2.73,0,0,0,.4-3.79A2.64,2.64,0,0,0,125.17,163.93Z" transform="translate(-12.1 23.49)"/></g><g class="cls-4"><path class="cls-5" d="M179,216.9a96.26,96.26,0,0,1-13.15,10.52l-.13.09a2.71,2.71,0,0,0-.83,3.65,2.66,2.66,0,0,0,2.28,1.29,2.71,2.71,0,0,0,1.39-.39l.25-.17a102.79,102.79,0,0,0,13.85-11.07,2.73,2.73,0,0,0,.11-3.81A2.65,2.65,0,0,0,179,216.9Z" transform="translate(-12.1 23.49)"/><path class="cls-5" d="M165.65,227.52h0l.06,0Z" transform="translate(-12.1 23.49)"/><path class="cls-5" d="M208.05,173.3a2.66,2.66,0,0,0-3.33,1.78,96.77,96.77,0,0,1-19.53,35.29,2.72,2.72,0,0,0,.24,3.8,2.64,2.64,0,0,0,3.76-.25,102.48,102.48,0,0,0,14.14-21.07,103.85,103.85,0,0,0,6.48-16.18A2.7,2.7,0,0,0,208.05,173.3Z" transform="translate(-12.1 23.49)"/><path class="cls-5" d="M89.43-14a2.73,2.73,0,0,0,1-.22c3.46-1.5,7-2.86,10.6-4.06a2.7,2.7,0,0,0,1.69-3.4,2.65,2.65,0,0,0-3.36-1.71c-3.72,1.24-7.43,2.66-11,4.22A2.7,2.7,0,0,0,87-15.6,2.67,2.67,0,0,0,89.43-14Z" transform="translate(-12.1 23.49)"/><path class="cls-5" d="M28.15,31a2.68,2.68,0,0,0,2-.95,158,158,0,0,1,47.24-38,2.71,2.71,0,0,0,1.12-3.63,2.67,2.67,0,0,0-3.6-1.14A163.68,163.68,0,0,0,26.12,26.56a2.72,2.72,0,0,0,.31,3.8A2.63,2.63,0,0,0,28.15,31Z" transform="translate(-12.1 23.49)"/><path class="cls-5" d="M108.85-9.53a2.67,2.67,0,0,0,.73-.1A123.16,123.16,0,0,1,143-14.41a2.68,2.68,0,0,0,2.65-2.7A2.68,2.68,0,0,0,143-19.79h0a128.13,128.13,0,0,0-34.83,5,2.71,2.71,0,0,0-1.83,3.33A2.66,2.66,0,0,0,108.85-9.53Z" transform="translate(-12.1 23.49)"/><path class="cls-5" d="M92.56-9.23A159.26,159.26,0,0,0,45.05,22a2.71,2.71,0,0,0-.09,3.8,2.64,2.64,0,0,0,3.76.1A153.62,153.62,0,0,1,94.64-4.27a2.71,2.71,0,0,0,1.41-3.54A2.66,2.66,0,0,0,92.56-9.23Z" transform="translate(-12.1 23.49)"/><path class="cls-5" d="M14.61,69.28a2.7,2.7,0,0,0,1.17.27A2.65,2.65,0,0,0,18.17,68c1.13-2.33,2.41-4.79,3.8-7.29A151.62,151.62,0,0,1,37.1,38.45a2.71,2.71,0,0,0-.35-3.79A2.65,2.65,0,0,0,33,35a157.21,157.21,0,0,0-15.67,23.1c-1.44,2.59-2.77,5.14-3.94,7.56A2.71,2.71,0,0,0,14.61,69.28Z" transform="translate(-12.1 23.49)"/><path class="cls-5" d="M17.39,95.75a32.67,32.67,0,0,0,4.07-7.88A134,134,0,0,1,31.24,66c15.22-27.31,38-47.63,67.59-60.42a113.38,113.38,0,0,1,71-6.23,2.66,2.66,0,0,0,3.2-2,2.69,2.69,0,0,0-2-3.24A118.71,118.71,0,0,0,96.74.67C66,13.93,42.41,35,26.61,63.39A139,139,0,0,0,16.43,86.1,26.75,26.75,0,0,1,13,92.65s-1.58,2.6.48,3.93S17.39,95.75,17.39,95.75Z" transform="translate(-12.1 23.49)"/><path class="cls-5" d="M14,117.71a2.65,2.65,0,0,0,3.56-1.24,103.57,103.57,0,0,1,11.79-19,2.77,2.77,0,0,0,.47-.9A123.37,123.37,0,0,1,40.52,71.32c14-25.18,35-43.95,62.48-55.79a103,103,0,0,1,85.35,1.75A2.63,2.63,0,0,0,191.89,16a2.71,2.71,0,0,0-1.26-3.59,108.23,108.23,0,0,0-89.72-1.84c-28.53,12.31-50.41,31.86-65,58.1a129,129,0,0,0-11,25.89A109.33,109.33,0,0,0,12.8,114.11,2.71,2.71,0,0,0,14,117.71Z" transform="translate(-12.1 23.49)"/><path class="cls-5" d="M39.5,101.64a112.1,112.1,0,0,1,10.29-25C62.65,53.53,82,36.32,107.18,25.44a91.57,91.57,0,0,1,36.53-7.55,92.94,92.94,0,0,1,57,19.63A2.64,2.64,0,0,0,204.4,37a2.71,2.71,0,0,0-.48-3.78,98.25,98.25,0,0,0-60.21-20.75,96.75,96.75,0,0,0-38.62,8C78.77,31.84,58.61,49.83,45.15,74A117.34,117.34,0,0,0,34.52,99.65,99.8,99.8,0,0,0,12.76,152.8a2.67,2.67,0,0,0,2.38,2.94l.27,0a2.67,2.67,0,0,0,2.64-2.43A94.51,94.51,0,0,1,39,102.64,2.66,2.66,0,0,0,39.5,101.64Z" transform="translate(-12.1 23.49)"/><path class="cls-5" d="M33,190.76a84.31,84.31,0,0,1,15.59-82.94,2.78,2.78,0,0,0,.58-1.1A102,102,0,0,1,59.06,81.9c11.69-21,29.28-36.63,52.29-46.55a81.86,81.86,0,0,1,96.18,23.84,2.64,2.64,0,0,0,3.74.38,2.71,2.71,0,0,0,.38-3.79A87.14,87.14,0,0,0,109.26,30.39C85.15,40.79,66.71,57.23,54.42,79.26a107.13,107.13,0,0,0-10.25,25.5A89.75,89.75,0,0,0,28,192.56a88.31,88.31,0,0,0,16.58,28.58,2.65,2.65,0,0,0,3.76.26,2.72,2.72,0,0,0,.25-3.8A82.8,82.8,0,0,1,33,190.76Z" transform="translate(-12.1 23.49)"/><path class="cls-5" d="M192.78,189.88a98.31,98.31,0,0,0,6.91-15.19,2.71,2.71,0,0,0-1.61-3.44,2.64,2.64,0,0,0-3.4,1.63,92.94,92.94,0,0,1-6.53,14.34c-11.49,20.57-29.43,35.37-53.3,44a71.17,71.17,0,0,1-24.14,4.22A72,72,0,0,1,43,187.15a74.14,74.14,0,0,1,15.21-74.09,2.62,2.62,0,0,0,.65-1.23,91.81,91.81,0,0,1,9.45-24.64c10.5-18.85,26.38-33,47.18-41.94a70.91,70.91,0,0,1,28.19-5.82,71.92,71.92,0,0,1,65.47,42.74,2.66,2.66,0,0,0,3.53,1.35A2.72,2.72,0,0,0,214,80,77.27,77.27,0,0,0,143.71,34a76.13,76.13,0,0,0-30.28,6.26C91.53,49.75,74.8,64.64,63.7,84.54a97.1,97.1,0,0,0-9.84,25.38A78.62,78.62,0,0,0,38,189a77.39,77.39,0,0,0,72.7,51.85,76.3,76.3,0,0,0,25.92-4.53C161.75,227.21,180.64,211.6,192.78,189.88Z" transform="translate(-12.1 23.49)"/><path class="cls-5" d="M212.7,140.58a2.66,2.66,0,0,0-3.52,1.36,72.78,72.78,0,0,1-10.44,16.91,2.71,2.71,0,0,0,.34,3.79,2.62,2.62,0,0,0,1.7.62,2.68,2.68,0,0,0,2.05-1A78.32,78.32,0,0,0,214,144.14,2.71,2.71,0,0,0,212.7,140.58Z" transform="translate(-12.1 23.49)"/><path class="cls-5" d="M143.71,44.81a65.53,65.53,0,0,0-26.1,5.4C97.91,58.7,82.9,72,73,89.83a86.29,86.29,0,0,0-9.36,25.35A68.16,68.16,0,0,0,48,185.34a66.72,66.72,0,0,0,62.67,44.71,65.76,65.76,0,0,0,22.34-3.91c22.64-8.17,39.62-22.15,50.47-41.56A85.79,85.79,0,0,0,193.33,157a68.22,68.22,0,0,0,11.59-71.23A66.44,66.44,0,0,0,143.71,44.81Zm45.16,109.1a2.75,2.75,0,0,0-.66,1.37,80.71,80.71,0,0,1-9.32,26.65c-10.21,18.25-26.23,31.42-47.63,39.13a60.29,60.29,0,0,1-20.55,3.6,61.38,61.38,0,0,1-57.66-41.13,62.73,62.73,0,0,1,14.89-65.1,2.64,2.64,0,0,0,.75-1.4,80.9,80.9,0,0,1,8.92-24.55c9.33-16.74,23.49-29.3,42.09-37.32a60.18,60.18,0,0,1,24-5A61.13,61.13,0,0,1,200,87.83,62.74,62.74,0,0,1,188.87,153.91Z" transform="translate(-12.1 23.49)"/><path class="cls-5" d="M143.71,55.58a55,55,0,0,0-21.92,4.53c-17.5,7.55-30.8,19.33-39.54,35a76.27,76.27,0,0,0-8.78,25.45,57.38,57.38,0,0,0-15.41,61.15,56.07,56.07,0,0,0,52.65,37.56A55.2,55.2,0,0,0,129.48,216c20.15-7.27,35.22-19.62,44.78-36.72A75.8,75.8,0,0,0,183.32,152a57.49,57.49,0,0,0,11.81-62.07A55.82,55.82,0,0,0,143.71,55.58Zm35.23,93.23a2.7,2.7,0,0,0-.78,1.6,70.35,70.35,0,0,1-8.54,26.21c-8.91,15.94-23,27.48-41.93,34.3a50,50,0,0,1-17,3,50.7,50.7,0,0,1-47.63-34A51.88,51.88,0,0,1,77.69,124a2.7,2.7,0,0,0,.89-1.64,71.11,71.11,0,0,1,8.31-24.58c8.15-14.63,20.59-25.63,37-32.7A49.61,49.61,0,0,1,143.71,61a50.49,50.49,0,0,1,46.52,31.1A52,52,0,0,1,178.94,148.81Z" transform="translate(-12.1 23.49)"/><path class="cls-5" d="M143.71,66.35A44.42,44.42,0,0,0,126,70c-15.29,6.59-26.88,16.82-34.45,30.39a66.67,66.67,0,0,0-8.06,25.78A46.28,46.28,0,0,0,68.09,178.1a45.38,45.38,0,0,0,42.62,30.41,44.73,44.73,0,0,0,15.19-2.66c17.68-6.38,30.83-17.1,39.09-31.88a66,66,0,0,0,8.19-27.11,46.38,46.38,0,0,0,12.15-52.69A45.17,45.17,0,0,0,143.71,66.35Zm25.22,77.08a2.7,2.7,0,0,0-1,1.9,60.94,60.94,0,0,1-7.6,26c-7.62,13.62-19.81,23.53-36.24,29.46a39.6,39.6,0,0,1-13.41,2.34,40,40,0,0,1-37.6-26.82,40.8,40.8,0,0,1,14.42-46.45,2.74,2.74,0,0,0,1.11-1.94,61.74,61.74,0,0,1,7.52-24.85c7-12.52,17.71-22,31.89-28.09a39.29,39.29,0,0,1,15.66-3.24,39.88,39.88,0,0,1,36.73,24.55A40.92,40.92,0,0,1,168.93,143.43Z" transform="translate(-12.1 23.49)"/><path class="cls-5" d="M143.71,77.12a2.69,2.69,0,0,0,0,5.38,29.24,29.24,0,0,1,26.93,18,29.91,29.91,0,0,1-11.84,37,2.73,2.73,0,0,0-1.29,2.29c0,7-.82,16.22-6.42,26.22-6.32,11.31-16.6,19.59-30.55,24.62a28.74,28.74,0,0,1-9.83,1.72,29.36,29.36,0,0,1-27.58-19.67A29.8,29.8,0,0,1,97.5,136.3,2.69,2.69,0,0,0,99,134a53.08,53.08,0,0,1,6.47-25.6c5.8-10.41,14.82-18.3,26.8-23.47a2.7,2.7,0,0,0,1.4-3.53,2.65,2.65,0,0,0-3.49-1.43c-13.08,5.65-23,14.32-29.34,25.78a57.48,57.48,0,0,0-7.12,26.56,35.26,35.26,0,0,0-15.56,42.23,34.69,34.69,0,0,0,32.59,23.25,34.18,34.18,0,0,0,11.62-2c15.19-5.48,26.43-14.57,33.4-27a56.6,56.6,0,0,0,7.08-27.36,35.38,35.38,0,0,0,12.73-42.92A34.55,34.55,0,0,0,143.71,77.12Z" transform="translate(-12.1 23.49)"/><path class="cls-5" d="M153.11,134.41a24.36,24.36,0,0,0,12.64-31.79,23.93,23.93,0,0,0-22-14.73,23.57,23.57,0,0,0-9.39,1.94c-10.88,4.69-19,11.81-24.25,21.16-5.91,10.6-5.84,20.57-5.79,26.52v1.74c-.41.19-.94.42-1.62.66a24.33,24.33,0,0,0-14.51,31A24,24,0,0,0,110.71,187a23.51,23.51,0,0,0,8-1.41c12.72-4.58,22-12.05,27.71-22.2,5.83-10.42,5.77-19.91,5.72-26.22,0-.56,0-1.49,0-2.29C152.42,134.72,152.73,134.57,153.11,134.41ZM151,129.46a11.2,11.2,0,0,0-3.23,1.94,2.7,2.7,0,0,0-.85,1.7c-.09.92-.09,2.52-.08,4.1,0,5.71.1,14.34-5,23.51-5,9-13.39,15.64-24.86,19.78a18.38,18.38,0,0,1-6.26,1.1,18.69,18.69,0,0,1-17.55-12.53A18.93,18.93,0,0,1,104.45,145a16.45,16.45,0,0,0,4-1.94,2.72,2.72,0,0,0,1.12-2c.06-1,0-2.58,0-3.53,0-5.42-.1-14.48,5.11-23.84,4.62-8.29,11.92-14.63,21.7-18.85a18.36,18.36,0,0,1,7.3-1.51,18.6,18.6,0,0,1,17.14,11.46A19,19,0,0,1,151,129.46Z" transform="translate(-12.1 23.49)"/><path class="cls-5" d="M148.68,99.63a13.1,13.1,0,0,0-10.19.11,45.3,45.3,0,0,0-8.62,4.84,2.71,2.71,0,0,0-.62,3.75A2.64,2.64,0,0,0,133,109a40.37,40.37,0,0,1,7.62-4.27,7.81,7.81,0,0,1,6.11-.06,8,8,0,0,1,4.37,4.32,8.13,8.13,0,0,1-4.22,10.6c-4.26,1.84-7.27,4.3-9,7.31s-1.71,5.75-1.68,10.43a54.07,54.07,0,0,1-.42,8.6A2.7,2.7,0,0,0,138,149l.4,0a2.67,2.67,0,0,0,2.63-2.29,58,58,0,0,0,.49-9.46c0-4.27,0-6,1-7.74,1.09-2,3.24-3.63,6.4-5a13.53,13.53,0,0,0,7-17.66A13.28,13.28,0,0,0,148.68,99.63Z" transform="translate(-12.1 23.49)"/><path class="cls-5" d="M125.53,163.7a41.24,41.24,0,0,1-12.14,6.64,7.73,7.73,0,0,1-2.68.48,8,8,0,0,1-7.52-5.37A8.1,8.1,0,0,1,108,155.13c5.27-1.9,8.85-4.49,10.64-7.68,1.62-2.91,1.6-5.91,1.57-10,0-5.18-.08-11.62,3.74-18.48a2.7,2.7,0,0,0-1-3.66,2.65,2.65,0,0,0-3.63,1c-4.51,8.1-4.46,15.65-4.42,21.15,0,4.14,0,5.85-.89,7.37-1.12,2-3.81,3.82-7.79,5.26a13.52,13.52,0,0,0-8.07,17.2,13.35,13.35,0,0,0,12.54,8.94,13.19,13.19,0,0,0,4.47-.78,46.28,46.28,0,0,0,13.69-7.53,2.72,2.72,0,0,0,.41-3.79A2.65,2.65,0,0,0,125.53,163.7Z" transform="translate(-12.1 23.49)"/></g><g class="cls-6"><path class="cls-7" d="M179,216.9a96.26,96.26,0,0,1-13.15,10.52l-.13.09a2.71,2.71,0,0,0-.83,3.65,2.66,2.66,0,0,0,2.28,1.29,2.71,2.71,0,0,0,1.39-.39l.25-.17a102.79,102.79,0,0,0,13.85-11.07,2.73,2.73,0,0,0,.11-3.81A2.65,2.65,0,0,0,179,216.9Z" transform="translate(-12.1 23.49)"/><path class="cls-7" d="M165.65,227.52h0l.06,0Z" transform="translate(-12.1 23.49)"/><path class="cls-7" d="M208.05,173.3a2.66,2.66,0,0,0-3.33,1.78,96.77,96.77,0,0,1-19.53,35.29,2.72,2.72,0,0,0,.24,3.8,2.64,2.64,0,0,0,3.76-.25,102.48,102.48,0,0,0,14.14-21.07,103.85,103.85,0,0,0,6.48-16.18A2.7,2.7,0,0,0,208.05,173.3Z" transform="translate(-12.1 23.49)"/><path class="cls-7" d="M89.43-14a2.73,2.73,0,0,0,1-.22c3.46-1.5,7-2.86,10.6-4.06a2.7,2.7,0,0,0,1.69-3.4,2.65,2.65,0,0,0-3.36-1.71c-3.72,1.24-7.43,2.66-11,4.22A2.7,2.7,0,0,0,87-15.6,2.67,2.67,0,0,0,89.43-14Z" transform="translate(-12.1 23.49)"/><path class="cls-7" d="M28.15,31a2.68,2.68,0,0,0,2-.95,158,158,0,0,1,47.24-38,2.71,2.71,0,0,0,1.12-3.63,2.67,2.67,0,0,0-3.6-1.14A163.68,163.68,0,0,0,26.12,26.56a2.72,2.72,0,0,0,.31,3.8A2.63,2.63,0,0,0,28.15,31Z" transform="translate(-12.1 23.49)"/><path class="cls-7" d="M108.85-9.53a2.67,2.67,0,0,0,.73-.1A123.16,123.16,0,0,1,143-14.41a2.68,2.68,0,0,0,2.65-2.7A2.68,2.68,0,0,0,143-19.79h0a128.13,128.13,0,0,0-34.83,5,2.71,2.71,0,0,0-1.83,3.33A2.66,2.66,0,0,0,108.85-9.53Z" transform="translate(-12.1 23.49)"/><path class="cls-7" d="M92.56-9.23A159.26,159.26,0,0,0,45.05,22a2.71,2.71,0,0,0-.09,3.8,2.64,2.64,0,0,0,3.76.1A153.62,153.62,0,0,1,94.64-4.27a2.71,2.71,0,0,0,1.41-3.54A2.66,2.66,0,0,0,92.56-9.23Z" transform="translate(-12.1 23.49)"/><path class="cls-7" d="M14.61,69.28a2.7,2.7,0,0,0,1.17.27A2.65,2.65,0,0,0,18.17,68c1.13-2.33,2.41-4.79,3.8-7.29A151.62,151.62,0,0,1,37.1,38.45a2.71,2.71,0,0,0-.35-3.79A2.65,2.65,0,0,0,33,35a157.21,157.21,0,0,0-15.67,23.1c-1.44,2.59-2.77,5.14-3.94,7.56A2.71,2.71,0,0,0,14.61,69.28Z" transform="translate(-12.1 23.49)"/><path class="cls-7" d="M17.39,95.75a32.67,32.67,0,0,0,4.07-7.88A134,134,0,0,1,31.24,66c15.22-27.31,38-47.63,67.59-60.42a113.38,113.38,0,0,1,71-6.23,2.66,2.66,0,0,0,3.2-2,2.69,2.69,0,0,0-2-3.24A118.71,118.71,0,0,0,96.74.67C66,13.93,42.41,35,26.61,63.39A139,139,0,0,0,16.43,86.1,26.75,26.75,0,0,1,13,92.65s-1.58,2.6.48,3.93S17.39,95.75,17.39,95.75Z" transform="translate(-12.1 23.49)"/><path class="cls-7" d="M14,117.71a2.65,2.65,0,0,0,3.56-1.24,103.57,103.57,0,0,1,11.79-19,2.77,2.77,0,0,0,.47-.9A123.37,123.37,0,0,1,40.52,71.32c14-25.18,35-43.95,62.48-55.79a103,103,0,0,1,85.35,1.75A2.63,2.63,0,0,0,191.89,16a2.71,2.71,0,0,0-1.26-3.59,108.23,108.23,0,0,0-89.72-1.84c-28.53,12.31-50.41,31.86-65,58.1a129,129,0,0,0-11,25.89A109.33,109.33,0,0,0,12.8,114.11,2.71,2.71,0,0,0,14,117.71Z" transform="translate(-12.1 23.49)"/><path class="cls-7" d="M39.5,101.64a112.1,112.1,0,0,1,10.29-25C62.65,53.53,82,36.32,107.18,25.44a91.57,91.57,0,0,1,36.53-7.55,92.94,92.94,0,0,1,57,19.63A2.64,2.64,0,0,0,204.4,37a2.71,2.71,0,0,0-.48-3.78,98.25,98.25,0,0,0-60.21-20.75,96.75,96.75,0,0,0-38.62,8C78.77,31.84,58.61,49.83,45.15,74A117.34,117.34,0,0,0,34.52,99.65,99.8,99.8,0,0,0,12.76,152.8a2.67,2.67,0,0,0,2.38,2.94l.27,0a2.67,2.67,0,0,0,2.64-2.43A94.51,94.51,0,0,1,39,102.64,2.66,2.66,0,0,0,39.5,101.64Z" transform="translate(-12.1 23.49)"/><path class="cls-7" d="M33,190.76a84.31,84.31,0,0,1,15.59-82.94,2.78,2.78,0,0,0,.58-1.1A102,102,0,0,1,59.06,81.9c11.69-21,29.28-36.63,52.29-46.55a81.86,81.86,0,0,1,96.18,23.84,2.64,2.64,0,0,0,3.74.38,2.71,2.71,0,0,0,.38-3.79A87.14,87.14,0,0,0,109.26,30.39C85.15,40.79,66.71,57.23,54.42,79.26a107.13,107.13,0,0,0-10.25,25.5A89.75,89.75,0,0,0,28,192.56a88.31,88.31,0,0,0,16.58,28.58,2.65,2.65,0,0,0,3.76.26,2.72,2.72,0,0,0,.25-3.8A82.8,82.8,0,0,1,33,190.76Z" transform="translate(-12.1 23.49)"/><path class="cls-7" d="M192.78,189.88a98.31,98.31,0,0,0,6.91-15.19,2.71,2.71,0,0,0-1.61-3.44,2.64,2.64,0,0,0-3.4,1.63,92.94,92.94,0,0,1-6.53,14.34c-11.49,20.57-29.43,35.37-53.3,44a71.17,71.17,0,0,1-24.14,4.22A72,72,0,0,1,43,187.15a74.14,74.14,0,0,1,15.21-74.09,2.62,2.62,0,0,0,.65-1.23,91.81,91.81,0,0,1,9.45-24.64c10.5-18.85,26.38-33,47.18-41.94a70.91,70.91,0,0,1,28.19-5.82,71.92,71.92,0,0,1,65.47,42.74,2.66,2.66,0,0,0,3.53,1.35A2.72,2.72,0,0,0,214,80,77.27,77.27,0,0,0,143.71,34a76.13,76.13,0,0,0-30.28,6.26C91.53,49.75,74.8,64.64,63.7,84.54a97.1,97.1,0,0,0-9.84,25.38A78.62,78.62,0,0,0,38,189a77.39,77.39,0,0,0,72.7,51.85,76.3,76.3,0,0,0,25.92-4.53C161.75,227.21,180.64,211.6,192.78,189.88Z" transform="translate(-12.1 23.49)"/><path class="cls-7" d="M212.7,140.58a2.66,2.66,0,0,0-3.52,1.36,72.78,72.78,0,0,1-10.44,16.91,2.71,2.71,0,0,0,.34,3.79,2.62,2.62,0,0,0,1.7.62,2.68,2.68,0,0,0,2.05-1A78.32,78.32,0,0,0,214,144.14,2.71,2.71,0,0,0,212.7,140.58Z" transform="translate(-12.1 23.49)"/><path class="cls-7" d="M143.71,44.81a65.53,65.53,0,0,0-26.1,5.4C97.91,58.7,82.9,72,73,89.83a86.29,86.29,0,0,0-9.36,25.35A68.16,68.16,0,0,0,48,185.34a66.72,66.72,0,0,0,62.67,44.71,65.76,65.76,0,0,0,22.34-3.91c22.64-8.17,39.62-22.15,50.47-41.56A85.79,85.79,0,0,0,193.33,157a68.22,68.22,0,0,0,11.59-71.23A66.44,66.44,0,0,0,143.71,44.81Zm45.16,109.1a2.75,2.75,0,0,0-.66,1.37,80.71,80.71,0,0,1-9.32,26.65c-10.21,18.25-26.23,31.42-47.63,39.13a60.29,60.29,0,0,1-20.55,3.6,61.38,61.38,0,0,1-57.66-41.13,62.73,62.73,0,0,1,14.89-65.1,2.64,2.64,0,0,0,.75-1.4,80.9,80.9,0,0,1,8.92-24.55c9.33-16.74,23.49-29.3,42.09-37.32a60.18,60.18,0,0,1,24-5A61.13,61.13,0,0,1,200,87.83,62.74,62.74,0,0,1,188.87,153.91Z" transform="translate(-12.1 23.49)"/><path class="cls-7" d="M143.71,55.58a55,55,0,0,0-21.92,4.53c-17.5,7.55-30.8,19.33-39.54,35a76.27,76.27,0,0,0-8.78,25.45,57.38,57.38,0,0,0-15.41,61.15,56.07,56.07,0,0,0,52.65,37.56A55.2,55.2,0,0,0,129.48,216c20.15-7.27,35.22-19.62,44.78-36.72A75.8,75.8,0,0,0,183.32,152a57.49,57.49,0,0,0,11.81-62.07A55.82,55.82,0,0,0,143.71,55.58Zm35.23,93.23a2.7,2.7,0,0,0-.78,1.6,70.35,70.35,0,0,1-8.54,26.21c-8.91,15.94-23,27.48-41.93,34.3a50,50,0,0,1-17,3,50.7,50.7,0,0,1-47.63-34A51.88,51.88,0,0,1,77.69,124a2.7,2.7,0,0,0,.89-1.64,71.11,71.11,0,0,1,8.31-24.58c8.15-14.63,20.59-25.63,37-32.7A49.61,49.61,0,0,1,143.71,61a50.49,50.49,0,0,1,46.52,31.1A52,52,0,0,1,178.94,148.81Z" transform="translate(-12.1 23.49)"/><path class="cls-7" d="M143.71,66.35A44.42,44.42,0,0,0,126,70c-15.29,6.59-26.88,16.82-34.45,30.39a66.67,66.67,0,0,0-8.06,25.78A46.28,46.28,0,0,0,68.09,178.1a45.38,45.38,0,0,0,42.62,30.41,44.73,44.73,0,0,0,15.19-2.66c17.68-6.38,30.83-17.1,39.09-31.88a66,66,0,0,0,8.19-27.11,46.38,46.38,0,0,0,12.15-52.69A45.17,45.17,0,0,0,143.71,66.35Zm25.22,77.08a2.7,2.7,0,0,0-1,1.9,60.94,60.94,0,0,1-7.6,26c-7.62,13.62-19.81,23.53-36.24,29.46a39.6,39.6,0,0,1-13.41,2.34,40,40,0,0,1-37.6-26.82,40.8,40.8,0,0,1,14.42-46.45,2.74,2.74,0,0,0,1.11-1.94,61.74,61.74,0,0,1,7.52-24.85c7-12.52,17.71-22,31.89-28.09a39.29,39.29,0,0,1,15.66-3.24,39.88,39.88,0,0,1,36.73,24.55A40.92,40.92,0,0,1,168.93,143.43Z" transform="translate(-12.1 23.49)"/><path class="cls-7" d="M143.71,77.12a2.69,2.69,0,0,0,0,5.38,29.24,29.24,0,0,1,26.93,18,29.91,29.91,0,0,1-11.84,37,2.73,2.73,0,0,0-1.29,2.29c0,7-.82,16.22-6.42,26.22-6.32,11.31-16.6,19.59-30.55,24.62a28.74,28.74,0,0,1-9.83,1.72,29.36,29.36,0,0,1-27.58-19.67A29.8,29.8,0,0,1,97.5,136.3,2.69,2.69,0,0,0,99,134a53.08,53.08,0,0,1,6.47-25.6c5.8-10.41,14.82-18.3,26.8-23.47a2.7,2.7,0,0,0,1.4-3.53,2.65,2.65,0,0,0-3.49-1.43c-13.08,5.65-23,14.32-29.34,25.78a57.48,57.48,0,0,0-7.12,26.56,35.26,35.26,0,0,0-15.56,42.23,34.69,34.69,0,0,0,32.59,23.25,34.18,34.18,0,0,0,11.62-2c15.19-5.48,26.43-14.57,33.4-27a56.6,56.6,0,0,0,7.08-27.36,35.38,35.38,0,0,0,12.73-42.92A34.55,34.55,0,0,0,143.71,77.12Z" transform="translate(-12.1 23.49)"/><path class="cls-7" d="M153.11,134.41a24.36,24.36,0,0,0,12.64-31.79,23.93,23.93,0,0,0-22-14.73,23.57,23.57,0,0,0-9.39,1.94c-10.88,4.69-19,11.81-24.25,21.16-5.91,10.6-5.84,20.57-5.79,26.52v1.74c-.41.19-.94.42-1.62.66a24.33,24.33,0,0,0-14.51,31A24,24,0,0,0,110.71,187a23.51,23.51,0,0,0,8-1.41c12.72-4.58,22-12.05,27.71-22.2,5.83-10.42,5.77-19.91,5.72-26.22,0-.56,0-1.49,0-2.29C152.42,134.72,152.73,134.57,153.11,134.41ZM151,129.46a11.2,11.2,0,0,0-3.23,1.94,2.7,2.7,0,0,0-.85,1.7c-.09.92-.09,2.52-.08,4.1,0,5.71.1,14.34-5,23.51-5,9-13.39,15.64-24.86,19.78a18.38,18.38,0,0,1-6.26,1.1,18.69,18.69,0,0,1-17.55-12.53A18.93,18.93,0,0,1,104.45,145a16.45,16.45,0,0,0,4-1.94,2.72,2.72,0,0,0,1.12-2c.06-1,0-2.58,0-3.53,0-5.42-.1-14.48,5.11-23.84,4.62-8.29,11.92-14.63,21.7-18.85a18.36,18.36,0,0,1,7.3-1.51,18.6,18.6,0,0,1,17.14,11.46A19,19,0,0,1,151,129.46Z" transform="translate(-12.1 23.49)"/><path class="cls-7" d="M148.68,99.63a13.1,13.1,0,0,0-10.19.11,45.3,45.3,0,0,0-8.62,4.84,2.71,2.71,0,0,0-.62,3.75A2.64,2.64,0,0,0,133,109a40.37,40.37,0,0,1,7.62-4.27,7.81,7.81,0,0,1,6.11-.06,8,8,0,0,1,4.37,4.32,8.13,8.13,0,0,1-4.22,10.6c-4.26,1.84-7.27,4.3-9,7.31s-1.71,5.75-1.68,10.43a54.07,54.07,0,0,1-.42,8.6A2.7,2.7,0,0,0,138,149l.4,0a2.67,2.67,0,0,0,2.63-2.29,58,58,0,0,0,.49-9.46c0-4.27,0-6,1-7.74,1.09-2,3.24-3.63,6.4-5a13.53,13.53,0,0,0,7-17.66A13.28,13.28,0,0,0,148.68,99.63Z" transform="translate(-12.1 23.49)"/><path class="cls-7" d="M125.53,163.7a41.24,41.24,0,0,1-12.14,6.64,7.73,7.73,0,0,1-2.68.48,8,8,0,0,1-7.52-5.37A8.1,8.1,0,0,1,108,155.13c5.27-1.9,8.85-4.49,10.64-7.68,1.62-2.91,1.6-5.91,1.57-10,0-5.18-.08-11.62,3.74-18.48a2.7,2.7,0,0,0-1-3.66,2.65,2.65,0,0,0-3.63,1c-4.51,8.1-4.46,15.65-4.42,21.15,0,4.14,0,5.85-.89,7.37-1.12,2-3.81,3.82-7.79,5.26a13.52,13.52,0,0,0-8.07,17.2,13.35,13.35,0,0,0,12.54,8.94,13.19,13.19,0,0,0,4.47-.78,46.28,46.28,0,0,0,13.69-7.53,2.72,2.72,0,0,0,.41-3.79A2.65,2.65,0,0,0,125.53,163.7Z" transform="translate(-12.1 23.49)"/></g></svg>