<svg width="202.18" height="264.54" xmlns="http://www.w3.org/2000/svg" data-name="Layer 1">
 <defs>
  <clipPath id="clip-path" transform="translate(-12.1 23.49)">
   <path class="cls-1" d="m44.29,153.52l20.52,35.54a14.61,14.61 0 0 0 12.64,7.3l82.08,0a14.6,14.6 0 0 0 12.64,-7.3l20.52,-35.54l-44.54,-25.72a59.35,59.35 0 0 0 -59.32,0l-44.54,25.72z" fill="none" id="svg_1"/>
  </clipPath>
  <clipPath id="clip-path-2" transform="translate(-12.1 23.49)">
   <path class="cls-1" d="m41.93,148.48l-20.52,-35.54a14.62,14.62 0 0 1 0,-14.59l41,-71.09a14.62,14.62 0 0 1 12.68,-7.26l41,0l0,51.39a59.31,59.31 0 0 1 -29.66,51.38l-44.5,25.71z" fill="none" id="svg_2"/>
  </clipPath>
  <clipPath id="clip-path-3" transform="translate(-12.1 23.49)">
   <path class="cls-1" d="m195.78,148.48l20.52,-35.54a14.57,14.57 0 0 0 0,-14.59l-41,-71.09a14.62,14.62 0 0 0 -12.68,-7.26l-41,0l0,51.39a59.34,59.34 0 0 0 29.66,51.38l44.5,25.71z" fill="none" id="svg_3"/>
  </clipPath>
 </defs>
 <g>
  <title>Layer 1</title>
  <g class="cls-2" clip-path="url(#clip-path)" id="svg_4">
   <path class="cls-3" d="m158.49902,236.66506a96.89,96.89 0 0 1 -13.16,10.51l-0.13,0.1a2.69,2.69 0 0 0 -0.82,3.64a2.64,2.64 0 0 0 2.28,1.29a2.58,2.58 0 0 0 1.38,-0.39l0.25,-0.16a101.62,101.62 0 0 0 13.85,-11.08a2.71,2.71 0 0 0 0.11,-3.8a2.64,2.64 0 0 0 -3.76,-0.11z" fill="#f2a341" id="svg_5"/>
   <path class="cls-3" d="m145.19902,247.28506l0,0l0.06,-0.05l-0.06,0.05z" fill="#f2a341" id="svg_6"/>
   <path class="cls-3" d="m187.59902,193.06506a2.65,2.65 0 0 0 -3.33,1.78a97.12,97.12 0 0 1 -19.54,35.28a2.72,2.72 0 0 0 0.24,3.8a2.65,2.65 0 0 0 3.76,-0.24a102.62,102.62 0 0 0 14.18,-21.07a104.25,104.25 0 0 0 6.48,-16.18a2.7,2.7 0 0 0 -1.79,-3.37z" fill="#f2a341" id="svg_7"/>
   <path class="cls-3" d="m68.96902,5.79506a2.6,2.6 0 0 0 1,-0.22c3.45,-1.49 7,-2.85 10.59,-4.05a2.7,2.7 0 0 0 1.69,-3.4a2.65,2.65 0 0 0 -3.34,-1.71c-3.72,1.24 -7.43,2.66 -11,4.21a2.71,2.71 0 0 0 -1.4,3.54a2.67,2.67 0 0 0 2.46,1.63z" fill="#f2a341" id="svg_8"/>
   <path class="cls-3" d="m7.68902,50.75506a2.65,2.65 0 0 0 2,-0.95a158.22,158.22 0 0 1 47.24,-38a2.72,2.72 0 0 0 1.12,-3.64a2.66,2.66 0 0 0 -3.6,-1.13a163.52,163.52 0 0 0 -48.79,39.29a2.71,2.71 0 0 0 0.31,3.79a2.63,2.63 0 0 0 1.72,0.64z" fill="#f2a341" id="svg_9"/>
   <path class="cls-3" d="m88.38902,10.23506a2.62,2.62 0 0 0 0.73,-0.1a122.77,122.77 0 0 1 33.4,-4.78a2.68,2.68 0 0 0 2.65,-2.71a2.68,2.68 0 0 0 -2.66,-2.68l0,0a128.14,128.14 0 0 0 -34.83,5a2.69,2.69 0 0 0 -1.83,3.32a2.67,2.67 0 0 0 2.54,1.95z" fill="#f2a341" id="svg_10"/>
   <path class="cls-3" d="m72.09902,10.52506a158.89,158.89 0 0 0 -47.5,31.2a2.7,2.7 0 0 0 -0.1,3.8a2.64,2.64 0 0 0 3.76,0.1a153.76,153.76 0 0 1 45.93,-30.1a2.7,2.7 0 0 0 1.4,-3.53a2.65,2.65 0 0 0 -3.49,-1.47z" fill="#f2a341" id="svg_11"/>
   <path class="cls-3" d="m-5.85098,89.03506a2.61,2.61 0 0 0 1.17,0.28a2.67,2.67 0 0 0 2.39,-1.51c1.13,-2.34 2.41,-4.79 3.81,-7.3a150.69,150.69 0 0 1 15.12,-22.29a2.71,2.71 0 0 0 -0.35,-3.79a2.63,2.63 0 0 0 -3.74,0.35a156.09,156.09 0 0 0 -15.64,23.09c-1.45,2.6 -2.78,5.15 -3.95,7.57a2.7,2.7 0 0 0 1.19,3.6z" fill="#f2a341" id="svg_12"/>
   <path class="cls-3" d="m-3.09098,115.52506a32.38,32.38 0 0 0 4.06,-7.87a134.19,134.19 0 0 1 9.79,-21.84c15.24,-27.29 37.98,-47.65 67.61,-60.43a113.41,113.41 0 0 1 71,-6.23a2.65,2.65 0 0 0 3.19,-2a2.68,2.68 0 0 0 -2,-3.23a118.5,118.5 0 0 0 -74.28,6.51c-30.73,13.26 -54.37,34.36 -70.13,62.72a139,139 0 0 0 -10.18,22.71a26.52,26.52 0 0 1 -3.39,6.54s-1.58,2.6 0.48,3.93s3.85,-0.81 3.85,-0.81z" fill="#f2a341" id="svg_13"/>
   <path class="cls-3" d="m-6.43098,137.46506a2.54,2.54 0 0 0 1.16,0.28a2.66,2.66 0 0 0 2.4,-1.52a103.33,103.33 0 0 1 11.8,-19a2.84,2.84 0 0 0 0.46,-0.9a123.37,123.37 0 0 1 10.67,-25.24c14,-25.19 35.06,-44 62.48,-55.79a103,103 0 0 1 85.37,1.75a2.64,2.64 0 0 0 3.54,-1.27a2.7,2.7 0 0 0 -1.26,-3.59a108.16,108.16 0 0 0 -89.71,-1.85c-28.57,12.32 -50.43,31.86 -65.06,58.11a128.93,128.93 0 0 0 -11,25.89a109.08,109.08 0 0 0 -12.1,19.53a2.71,2.71 0 0 0 1.25,3.6z" fill="#f2a341" id="svg_14"/>
   <path class="cls-3" d="m19.03902,121.40506a111.91,111.91 0 0 1 10.29,-25c12.87,-23.08 32.17,-40.3 57.39,-51.17a91.6,91.6 0 0 1 36.53,-7.55a92.94,92.94 0 0 1 57,19.63a2.63,2.63 0 0 0 3.73,-0.49a2.7,2.7 0 0 0 -0.48,-3.77a98.17,98.17 0 0 0 -60.21,-20.76a97,97 0 0 0 -38.62,8c-26.36,11.3 -46.52,29.3 -59.97,53.43a117.09,117.09 0 0 0 -10.64,25.68a99.91,99.91 0 0 0 -21.76,53.12a2.68,2.68 0 0 0 2.38,3l0.23,0a2.68,2.68 0 0 0 2.65,-2.42a94.48,94.48 0 0 1 20.92,-50.7a2.62,2.62 0 0 0 0.56,-1z" fill="#f2a341" id="svg_15"/>
   <path class="cls-3" d="m12.53902,210.52506a84.32,84.32 0 0 1 15.6,-82.94a2.63,2.63 0 0 0 0.57,-1.1a102.13,102.13 0 0 1 9.89,-24.81c11.7,-20.98 29.31,-36.64 52.31,-46.57a81.89,81.89 0 0 1 96.18,23.85a2.65,2.65 0 0 0 3.75,0.38a2.72,2.72 0 0 0 0.37,-3.79a87.14,87.14 0 0 0 -102.41,-25.39c-24.1,10.37 -42.55,26.84 -54.83,48.86a107.65,107.65 0 0 0 -10.26,25.51a89.75,89.75 0 0 0 -16.18,87.8a88.13,88.13 0 0 0 16.58,28.58a2.63,2.63 0 0 0 3.75,0.25a2.7,2.7 0 0 0 0.25,-3.79a83.13,83.13 0 0 1 -15.57,-26.84z" fill="#f2a341" id="svg_16"/>
   <path class="cls-3" d="m172.31902,209.63506a96.86,96.86 0 0 0 6.91,-15.18a2.7,2.7 0 0 0 -1.61,-3.45a2.65,2.65 0 0 0 -3.4,1.63a92.1,92.1 0 0 1 -6.53,14.35c-11.49,20.57 -29.43,35.37 -53.3,44a71.16,71.16 0 0 1 -24.14,4.21a72,72 0 0 1 -67.68,-48.27a74.13,74.13 0 0 1 15.22,-74.1a2.65,2.65 0 0 0 0.64,-1.23a92,92 0 0 1 9.48,-24.65c10.51,-18.85 26.38,-33 47.18,-41.93a71,71 0 0 1 28.19,-5.83a71.94,71.94 0 0 1 65.48,42.75a2.65,2.65 0 0 0 3.52,1.34a2.7,2.7 0 0 0 1.33,-3.56a77.26,77.26 0 0 0 -70.33,-45.91a76.08,76.08 0 0 0 -30.27,6.26c-21.94,9.46 -38.67,24.33 -49.77,44.24a97.07,97.07 0 0 0 -9.83,25.38a78.58,78.58 0 0 0 -15.86,79a77.4,77.4 0 0 0 72.7,51.86a76.3,76.3 0 0 0 25.92,-4.53c25.12,-9.04 44.01,-24.65 56.15,-46.38z" fill="#f2a341" id="svg_17"/>
   <path class="cls-3" d="m192.23902,160.34506a2.65,2.65 0 0 0 -3.52,1.36a72.52,72.52 0 0 1 -10.44,16.9a2.72,2.72 0 0 0 0.34,3.8a2.65,2.65 0 0 0 3.75,-0.35a78,78 0 0 0 11.21,-18.16a2.7,2.7 0 0 0 -1.34,-3.55z" fill="#f2a341" id="svg_18"/>
   <path class="cls-3" d="m123.24902,64.57506a65.44,65.44 0 0 0 -26.09,5.39c-19.7,8.5 -34.72,21.83 -44.64,39.63a86.27,86.27 0 0 0 -9.35,25.35a68.15,68.15 0 0 0 -15.59,70.15a66.71,66.71 0 0 0 62.67,44.71a65.61,65.61 0 0 0 22.35,-3.91c22.63,-8.16 39.61,-22.14 50.46,-41.56a85.47,85.47 0 0 0 9.85,-27.63a68.18,68.18 0 0 0 11.55,-71.18a66.43,66.43 0 0 0 -61.21,-40.95zm45.16,109.1a2.79,2.79 0 0 0 -0.66,1.37a80.13,80.13 0 0 1 -9.32,26.64c-10.21,18.26 -26.23,31.43 -47.62,39.14a60.39,60.39 0 0 1 -20.56,3.6a61.39,61.39 0 0 1 -57.66,-41.13a62.73,62.73 0 0 1 14.89,-65.1a2.63,2.63 0 0 0 0.75,-1.41a80.85,80.85 0 0 1 8.93,-24.55c9.33,-16.71 23.49,-29.29 42.08,-37.31a60.21,60.21 0 0 1 24,-5a61.12,61.12 0 0 1 56.31,37.64a62.72,62.72 0 0 1 -11.14,66.11z" fill="#f2a341" id="svg_19"/>
   <path class="cls-3" d="m123.24902,75.34506a55,55 0 0 0 -21.92,4.53c-17.49,7.55 -30.8,19.32 -39.54,35a76.41,76.41 0 0 0 -8.78,25.45a57.37,57.37 0 0 0 -15.4,61.2a56,56 0 0 0 52.64,37.55a55.15,55.15 0 0 0 18.77,-3.28c20.15,-7.27 35.22,-19.62 44.78,-36.72a75.41,75.41 0 0 0 9.11,-27.31a57.46,57.46 0 0 0 11.81,-62.06a55.82,55.82 0 0 0 -51.47,-34.36zm35.23,93.23a2.7,2.7 0 0 0 -0.78,1.59a70.39,70.39 0 0 1 -8.53,26.22c-8.92,15.94 -23,27.48 -41.94,34.3a50,50 0 0 1 -17,3a50.72,50.72 0 0 1 -47.63,-34a51.92,51.92 0 0 1 14.61,-55.93a2.69,2.69 0 0 0 0.9,-1.63a71,71 0 0 1 8.32,-24.6c8.15,-14.62 20.6,-25.63 37,-32.7a49.81,49.81 0 0 1 19.83,-4.1a50.5,50.5 0 0 1 46.52,31.09a52,52 0 0 1 -11.3,56.76z" fill="#f2a341" id="svg_20"/>
   <path class="cls-3" d="m123.24902,86.11506a44.42,44.42 0 0 0 -17.74,3.67c-15.29,6.59 -26.88,16.82 -34.44,30.39a66.62,66.62 0 0 0 -8.07,25.78a46.28,46.28 0 0 0 -15.37,51.91a45.37,45.37 0 0 0 42.62,30.4a44.59,44.59 0 0 0 15.2,-2.66c17.67,-6.37 30.82,-17.09 39.08,-31.87a66,66 0 0 0 8.19,-27.12a46.36,46.36 0 0 0 12.19,-52.68a45.16,45.16 0 0 0 -41.66,-27.82zm25.22,77.08a2.68,2.68 0 0 0 -1,1.89a60.72,60.72 0 0 1 -7.6,26c-7.62,13.63 -19.81,23.54 -36.24,29.46a39.36,39.36 0 0 1 -13.41,2.35a40,40 0 0 1 -37.6,-26.83a40.82,40.82 0 0 1 14.42,-46.45a2.68,2.68 0 0 0 1.11,-1.94a61.74,61.74 0 0 1 7.52,-24.85c7,-12.51 17.71,-22 31.9,-28.08a39.24,39.24 0 0 1 15.68,-3.22a39.87,39.87 0 0 1 36.73,24.55a40.91,40.91 0 0 1 -11.51,47.12z" fill="#f2a341" id="svg_21"/>
   <path class="cls-3" d="m123.24902,96.87506a2.7,2.7 0 0 0 0,5.39a29.25,29.25 0 0 1 26.94,18a29.91,29.91 0 0 1 -11.85,37a2.71,2.71 0 0 0 -1.29,2.29c0,6.95 -0.82,16.22 -6.41,26.22c-6.33,11.3 -16.6,19.59 -30.56,24.62a28.94,28.94 0 0 1 -9.83,1.72a29.36,29.36 0 0 1 -27.57,-19.67a29.8,29.8 0 0 1 14.36,-36.38a2.67,2.67 0 0 0 1.46,-2.35a53.17,53.17 0 0 1 6.48,-25.61c5.79,-10.4 14.81,-18.3 26.79,-23.47a2.71,2.71 0 0 0 1.41,-3.53a2.66,2.66 0 0 0 -3.5,-1.42c-13.08,5.65 -23,14.32 -29.34,25.78a57.58,57.58 0 0 0 -7.12,26.56a35.26,35.26 0 0 0 -15.56,42.23a34.71,34.71 0 0 0 32.59,23.27a34.14,34.14 0 0 0 11.62,-2c15.19,-5.48 26.43,-14.58 33.4,-27a56.57,56.57 0 0 0 7.08,-27.35a35.38,35.38 0 0 0 12.73,-42.92a34.56,34.56 0 0 0 -31.83,-21.38z" fill="#f2a341" id="svg_22"/>
   <path class="cls-3" d="m132.64902,154.17506a24.37,24.37 0 0 0 12.64,-31.8a23.93,23.93 0 0 0 -22,-14.73a23.58,23.58 0 0 0 -9.38,1.95c-10.88,4.69 -19,11.81 -24.25,21.16c-5.9,10.6 -5.83,20.56 -5.79,26.52c0,0.44 0,1.1 0,1.74c-0.41,0.19 -0.94,0.42 -1.61,0.66a24.34,24.34 0 0 0 -14.52,31a23.82,23.82 0 0 0 30.61,14.69c12.71,-4.59 22,-12.06 27.7,-22.2c5.83,-10.43 5.77,-19.92 5.72,-26.22c0,-0.56 0,-1.5 0,-2.29c0.2,-0.13 0.5,-0.32 0.88,-0.48zm-2.09,-5a11.16,11.16 0 0 0 -3.23,1.95a2.62,2.62 0 0 0 -0.84,1.7c-0.1,0.92 -0.1,2.52 -0.09,4.1c0,5.71 0.1,14.33 -5,23.51c-5,9 -13.39,15.64 -24.86,19.77a18.34,18.34 0 0 1 -6.26,1.1a18.69,18.69 0 0 1 -17.58,-12.48a18.93,18.93 0 0 1 11.3,-24.08a16.43,16.43 0 0 0 4,-1.95a2.7,2.7 0 0 0 1.12,-2c0.06,-1 0,-2.58 0,-3.52c0,-5.42 -0.1,-14.49 5.11,-23.84c4.68,-8.33 11.94,-14.67 21.68,-18.91a18.36,18.36 0 0 1 7.3,-1.51a18.61,18.61 0 0 1 17.18,11.51a19,19 0 0 1 -9.83,24.69l0,-0.04z" fill="#f2a341" id="svg_23"/>
   <path class="cls-3" d="m128.21902,119.39506a13.08,13.08 0 0 0 -10.18,0.1a46.25,46.25 0 0 0 -8.63,4.84a2.73,2.73 0 0 0 -0.62,3.76a2.65,2.65 0 0 0 3.71,0.63a40.13,40.13 0 0 1 7.62,-4.27a7.85,7.85 0 0 1 6.11,-0.07a8,8 0 0 1 4.37,4.33a8.12,8.12 0 0 1 -4.21,10.6c-4.27,1.84 -7.28,4.29 -9,7.3s-1.71,5.75 -1.67,10.44a55.46,55.46 0 0 1 -0.43,8.6a2.68,2.68 0 0 0 2.23,3.06a2.83,2.83 0 0 0 0.41,0a2.67,2.67 0 0 0 2.63,-2.28a59.15,59.15 0 0 0 0.48,-9.46c0,-4.27 0.05,-6 1,-7.74c1.09,-2 3.24,-3.64 6.4,-5a13.54,13.54 0 0 0 7,-17.66a13.3,13.3 0 0 0 -7.22,-7.18z" fill="#f2a341" id="svg_24"/>
   <path class="cls-3" d="m105.07902,183.45506a41.09,41.09 0 0 1 -12.17,6.65a7.94,7.94 0 0 1 -10.2,-4.9a8.11,8.11 0 0 1 4.84,-10.32c5.27,-1.9 8.85,-4.48 10.64,-7.67c1.63,-2.92 1.61,-5.91 1.58,-10.06c0,-5.17 -0.09,-11.62 3.73,-18.47a2.7,2.7 0 0 0 -1,-3.67a2.64,2.64 0 0 0 -3.62,1c-4.52,8.1 -4.46,15.64 -4.43,21.15c0,4.14 0,5.85 -0.89,7.37c-1.12,2 -3.81,3.82 -7.79,5.25a13.52,13.52 0 0 0 -8.06,17.2a13.34,13.34 0 0 0 12.53,8.95a13.16,13.16 0 0 0 4.47,-0.79a46.68,46.68 0 0 0 13.7,-7.52a2.73,2.73 0 0 0 0.4,-3.79a2.64,2.64 0 0 0 -3.73,-0.38z" fill="#f2a341" id="svg_25"/>
  </g>
  <g class="cls-4" clip-path="url(#clip-path-2)" id="svg_26">
   <path class="cls-5" d="m158.90902,236.42506a96.26,96.26 0 0 1 -13.15,10.52l-0.13,0.09a2.71,2.71 0 0 0 -0.83,3.65a2.66,2.66 0 0 0 2.28,1.29a2.71,2.71 0 0 0 1.39,-0.39l0.25,-0.17a102.79,102.79 0 0 0 13.85,-11.07a2.73,2.73 0 0 0 0.11,-3.81a2.65,2.65 0 0 0 -3.77,-0.11z" fill="#6fa8bf" id="svg_27"/>
   <path class="cls-5" d="m145.55902,247.04506l0,0l0.06,0l-0.06,0z" fill="#6fa8bf" id="svg_28"/>
   <path class="cls-5" d="m187.95902,192.82506a2.66,2.66 0 0 0 -3.33,1.78a96.77,96.77 0 0 1 -19.53,35.29a2.72,2.72 0 0 0 0.24,3.8a2.64,2.64 0 0 0 3.76,-0.25a102.48,102.48 0 0 0 14.14,-21.07a103.85,103.85 0 0 0 6.48,-16.18a2.7,2.7 0 0 0 -1.76,-3.37z" fill="#6fa8bf" id="svg_29"/>
   <path class="cls-5" d="m69.33902,5.52506a2.73,2.73 0 0 0 1,-0.22c3.46,-1.5 7,-2.86 10.6,-4.06a2.7,2.7 0 0 0 1.69,-3.4a2.65,2.65 0 0 0 -3.36,-1.71c-3.72,1.24 -7.43,2.66 -11,4.22a2.7,2.7 0 0 0 -1.36,3.57a2.67,2.67 0 0 0 2.43,1.6z" fill="#6fa8bf" id="svg_30"/>
   <path class="cls-5" d="m8.05902,50.52506a2.68,2.68 0 0 0 2,-0.95a158,158 0 0 1 47.24,-38a2.71,2.71 0 0 0 1.12,-3.63a2.67,2.67 0 0 0 -3.6,-1.14a163.68,163.68 0 0 0 -48.79,39.28a2.72,2.72 0 0 0 0.31,3.8a2.63,2.63 0 0 0 1.72,0.64z" fill="#6fa8bf" id="svg_31"/>
   <path class="cls-5" d="m88.75902,9.99506a2.67,2.67 0 0 0 0.73,-0.1a123.16,123.16 0 0 1 33.42,-4.78a2.68,2.68 0 0 0 2.65,-2.7a2.68,2.68 0 0 0 -2.65,-2.68l0,0a128.13,128.13 0 0 0 -34.83,5a2.71,2.71 0 0 0 -1.83,3.33a2.66,2.66 0 0 0 2.51,1.93z" fill="#6fa8bf" id="svg_32"/>
   <path class="cls-5" d="m72.46902,10.29506a159.26,159.26 0 0 0 -47.51,31.23a2.71,2.71 0 0 0 -0.09,3.8a2.64,2.64 0 0 0 3.76,0.1a153.62,153.62 0 0 1 45.92,-30.17a2.71,2.71 0 0 0 1.41,-3.54a2.66,2.66 0 0 0 -3.49,-1.42z" fill="#6fa8bf" id="svg_33"/>
   <path class="cls-5" d="m-5.48098,88.80506a2.7,2.7 0 0 0 1.17,0.27a2.65,2.65 0 0 0 2.39,-1.55c1.13,-2.33 2.41,-4.79 3.8,-7.29a151.62,151.62 0 0 1 15.13,-22.26a2.71,2.71 0 0 0 -0.35,-3.79a2.65,2.65 0 0 0 -3.75,0.34a157.21,157.21 0 0 0 -15.67,23.1c-1.44,2.59 -2.77,5.14 -3.94,7.56a2.71,2.71 0 0 0 1.22,3.62z" fill="#6fa8bf" id="svg_34"/>
   <path class="cls-5" d="m-2.70098,115.27506a32.67,32.67 0 0 0 4.07,-7.88a134,134 0 0 1 9.78,-21.87c15.22,-27.31 38,-47.63 67.59,-60.42a113.38,113.38 0 0 1 71,-6.23a2.66,2.66 0 0 0 3.2,-2a2.69,2.69 0 0 0 -2,-3.24a118.71,118.71 0 0 0 -74.29,6.56c-30.74,13.26 -54.33,34.33 -70.13,62.72a139,139 0 0 0 -10.18,22.71a26.75,26.75 0 0 1 -3.43,6.55s-1.58,2.6 0.48,3.93s3.91,-0.83 3.91,-0.83z" fill="#6fa8bf" id="svg_35"/>
   <path class="cls-5" d="m-6.09098,137.23506a2.65,2.65 0 0 0 3.56,-1.24a103.57,103.57 0 0 1 11.79,-19a2.77,2.77 0 0 0 0.47,-0.9a123.37,123.37 0 0 1 10.7,-25.25c14,-25.18 35,-43.95 62.48,-55.79a103,103 0 0 1 85.35,1.75a2.63,2.63 0 0 0 3.54,-1.28a2.71,2.71 0 0 0 -1.26,-3.59a108.23,108.23 0 0 0 -89.72,-1.84c-28.53,12.31 -50.41,31.86 -65,58.1a129,129 0 0 0 -11,25.89a109.33,109.33 0 0 0 -12.11,19.55a2.71,2.71 0 0 0 1.2,3.6z" fill="#6fa8bf" id="svg_36"/>
   <path class="cls-5" d="m19.40902,121.16506a112.1,112.1 0 0 1 10.29,-25c12.86,-23.11 32.21,-40.32 57.39,-51.2a91.57,91.57 0 0 1 36.53,-7.55a92.94,92.94 0 0 1 57,19.63a2.64,2.64 0 0 0 3.69,-0.52a2.71,2.71 0 0 0 -0.48,-3.78a98.25,98.25 0 0 0 -60.21,-20.75a96.75,96.75 0 0 0 -38.62,8c-26.32,11.37 -46.48,29.36 -59.94,53.53a117.34,117.34 0 0 0 -10.63,25.65a99.8,99.8 0 0 0 -21.76,53.15a2.67,2.67 0 0 0 2.38,2.94l0.27,0a2.67,2.67 0 0 0 2.64,-2.43a94.51,94.51 0 0 1 20.95,-50.67a2.66,2.66 0 0 0 0.5,-1z" fill="#6fa8bf" id="svg_37"/>
   <path class="cls-5" d="m12.90902,210.28506a84.31,84.31 0 0 1 15.59,-82.94a2.78,2.78 0 0 0 0.58,-1.1a102,102 0 0 1 9.89,-24.82c11.69,-21 29.28,-36.63 52.29,-46.55a81.86,81.86 0 0 1 96.18,23.84a2.64,2.64 0 0 0 3.74,0.38a2.71,2.71 0 0 0 0.38,-3.79a87.14,87.14 0 0 0 -102.39,-25.39c-24.11,10.4 -42.55,26.84 -54.84,48.87a107.13,107.13 0 0 0 -10.25,25.5a89.75,89.75 0 0 0 -16.17,87.8a88.31,88.31 0 0 0 16.58,28.58a2.65,2.65 0 0 0 3.76,0.26a2.72,2.72 0 0 0 0.25,-3.8a82.8,82.8 0 0 1 -15.59,-26.84z" fill="#6fa8bf" id="svg_38"/>
   <path class="cls-5" d="m172.68902,209.40506a98.31,98.31 0 0 0 6.91,-15.19a2.71,2.71 0 0 0 -1.61,-3.44a2.64,2.64 0 0 0 -3.4,1.63a92.94,92.94 0 0 1 -6.53,14.34c-11.49,20.57 -29.43,35.37 -53.3,44a71.17,71.17 0 0 1 -24.14,4.22a72,72 0 0 1 -67.71,-48.29a74.14,74.14 0 0 1 15.21,-74.09a2.62,2.62 0 0 0 0.65,-1.23a91.81,91.81 0 0 1 9.45,-24.64c10.5,-18.85 26.38,-33 47.18,-41.94a70.91,70.91 0 0 1 28.19,-5.82a71.92,71.92 0 0 1 65.47,42.74a2.66,2.66 0 0 0 3.53,1.35a2.72,2.72 0 0 0 1.32,-3.52a77.27,77.27 0 0 0 -70.29,-46a76.13,76.13 0 0 0 -30.28,6.26c-21.9,9.49 -38.63,24.38 -49.73,44.28a97.1,97.1 0 0 0 -9.84,25.38a78.62,78.62 0 0 0 -15.86,79.08a77.39,77.39 0 0 0 72.7,51.85a76.3,76.3 0 0 0 25.92,-4.53c25.13,-9.11 44.02,-24.72 56.16,-46.44z" fill="#6fa8bf" id="svg_39"/>
   <path class="cls-5" d="m192.60902,160.10506a2.66,2.66 0 0 0 -3.52,1.36a72.78,72.78 0 0 1 -10.44,16.91a2.71,2.71 0 0 0 0.34,3.79a2.62,2.62 0 0 0 1.7,0.62a2.68,2.68 0 0 0 2.05,-1a78.32,78.32 0 0 0 11.17,-18.12a2.71,2.71 0 0 0 -1.3,-3.56z" fill="#6fa8bf" id="svg_40"/>
   <path class="cls-5" d="m123.61902,64.33506a65.53,65.53 0 0 0 -26.1,5.4c-19.7,8.49 -34.71,21.79 -44.61,39.62a86.29,86.29 0 0 0 -9.36,25.35a68.16,68.16 0 0 0 -15.64,70.16a66.72,66.72 0 0 0 62.67,44.71a65.76,65.76 0 0 0 22.34,-3.91c22.64,-8.17 39.62,-22.15 50.47,-41.56a85.79,85.79 0 0 0 9.85,-27.58a68.22,68.22 0 0 0 11.59,-71.23a66.44,66.44 0 0 0 -61.21,-40.96zm45.16,109.1a2.75,2.75 0 0 0 -0.66,1.37a80.71,80.71 0 0 1 -9.32,26.65c-10.21,18.25 -26.23,31.42 -47.63,39.13a60.29,60.29 0 0 1 -20.55,3.6a61.38,61.38 0 0 1 -57.66,-41.13a62.73,62.73 0 0 1 14.89,-65.1a2.64,2.64 0 0 0 0.75,-1.4a80.9,80.9 0 0 1 8.92,-24.55c9.33,-16.74 23.49,-29.3 42.09,-37.32a60.18,60.18 0 0 1 24,-5a61.13,61.13 0 0 1 56.3,37.67a62.74,62.74 0 0 1 -11.13,66.08z" fill="#6fa8bf" id="svg_41"/>
   <path class="cls-5" d="m123.61902,75.10506a55,55 0 0 0 -21.92,4.53c-17.5,7.55 -30.8,19.33 -39.54,35a76.27,76.27 0 0 0 -8.78,25.45a57.38,57.38 0 0 0 -15.41,61.15a56.07,56.07 0 0 0 52.65,37.56a55.2,55.2 0 0 0 18.77,-3.27c20.15,-7.27 35.22,-19.62 44.78,-36.72a75.8,75.8 0 0 0 9.06,-27.28a57.49,57.49 0 0 0 11.81,-62.07a55.82,55.82 0 0 0 -51.42,-34.35zm35.23,93.23a2.7,2.7 0 0 0 -0.78,1.6a70.35,70.35 0 0 1 -8.54,26.21c-8.91,15.94 -23,27.48 -41.93,34.3a50,50 0 0 1 -17,3a50.7,50.7 0 0 1 -47.63,-34a51.88,51.88 0 0 1 14.63,-55.92a2.7,2.7 0 0 0 0.89,-1.64a71.11,71.11 0 0 1 8.31,-24.58c8.15,-14.63 20.59,-25.63 37,-32.7a49.61,49.61 0 0 1 19.82,-4.08a50.49,50.49 0 0 1 46.52,31.1a52,52 0 0 1 -11.29,56.71z" fill="#6fa8bf" id="svg_42"/>
   <path class="cls-5" d="m123.61902,85.87506a44.42,44.42 0 0 0 -17.71,3.65c-15.29,6.59 -26.88,16.82 -34.45,30.39a66.67,66.67 0 0 0 -8.06,25.78a46.28,46.28 0 0 0 -15.4,51.93a45.38,45.38 0 0 0 42.62,30.41a44.73,44.73 0 0 0 15.19,-2.66c17.68,-6.38 30.83,-17.1 39.09,-31.88a66,66 0 0 0 8.19,-27.11a46.38,46.38 0 0 0 12.15,-52.69a45.17,45.17 0 0 0 -41.62,-27.82zm25.22,77.08a2.7,2.7 0 0 0 -1,1.9a60.94,60.94 0 0 1 -7.6,26c-7.62,13.62 -19.81,23.53 -36.24,29.46a39.6,39.6 0 0 1 -13.41,2.34a40,40 0 0 1 -37.6,-26.82a40.8,40.8 0 0 1 14.42,-46.45a2.74,2.74 0 0 0 1.11,-1.94a61.74,61.74 0 0 1 7.52,-24.85c7,-12.52 17.71,-22 31.89,-28.09a39.29,39.29 0 0 1 15.66,-3.24a39.88,39.88 0 0 1 36.73,24.55a40.92,40.92 0 0 1 -11.48,47.14z" fill="#6fa8bf" id="svg_43"/>
   <path class="cls-5" d="m123.61902,96.64506a2.69,2.69 0 0 0 0,5.38a29.24,29.24 0 0 1 26.93,18a29.91,29.91 0 0 1 -11.84,37a2.73,2.73 0 0 0 -1.29,2.29c0,7 -0.82,16.22 -6.42,26.22c-6.32,11.31 -16.6,19.59 -30.55,24.62a28.74,28.74 0 0 1 -9.83,1.72a29.36,29.36 0 0 1 -27.58,-19.67a29.8,29.8 0 0 1 14.37,-36.38a2.69,2.69 0 0 0 1.5,-2.3a53.08,53.08 0 0 1 6.47,-25.6c5.8,-10.41 14.82,-18.3 26.8,-23.47a2.7,2.7 0 0 0 1.4,-3.53a2.65,2.65 0 0 0 -3.49,-1.43c-13.08,5.65 -23,14.32 -29.34,25.78a57.48,57.48 0 0 0 -7.12,26.56a35.26,35.26 0 0 0 -15.56,42.23a34.69,34.69 0 0 0 32.59,23.25a34.18,34.18 0 0 0 11.62,-2c15.19,-5.48 26.43,-14.57 33.4,-27a56.6,56.6 0 0 0 7.08,-27.36a35.38,35.38 0 0 0 12.73,-42.92a34.55,34.55 0 0 0 -31.87,-21.39z" fill="#6fa8bf" id="svg_44"/>
   <path class="cls-5" d="m133.01902,153.93506a24.36,24.36 0 0 0 12.64,-31.79a23.93,23.93 0 0 0 -22,-14.73a23.57,23.57 0 0 0 -9.39,1.94c-10.88,4.69 -19,11.81 -24.25,21.16c-5.91,10.6 -5.84,20.57 -5.79,26.52l0,1.74c-0.41,0.19 -0.94,0.42 -1.62,0.66a24.33,24.33 0 0 0 -14.51,31a24,24 0 0 0 22.52,16.09a23.51,23.51 0 0 0 8,-1.41c12.72,-4.58 22,-12.05 27.71,-22.2c5.83,-10.42 5.77,-19.91 5.72,-26.22c0,-0.56 0,-1.49 0,-2.29c0.28,-0.16 0.59,-0.31 0.97,-0.47zm-2.11,-4.95a11.2,11.2 0 0 0 -3.23,1.94a2.7,2.7 0 0 0 -0.85,1.7c-0.09,0.92 -0.09,2.52 -0.08,4.1c0,5.71 0.1,14.34 -5,23.51c-5,9 -13.39,15.64 -24.86,19.78a18.38,18.38 0 0 1 -6.26,1.1a18.69,18.69 0 0 1 -17.55,-12.53a18.93,18.93 0 0 1 11.28,-24.06a16.45,16.45 0 0 0 4,-1.94a2.72,2.72 0 0 0 1.12,-2c0.06,-1 0,-2.58 0,-3.53c0,-5.42 -0.1,-14.48 5.11,-23.84c4.62,-8.29 11.92,-14.63 21.7,-18.85a18.36,18.36 0 0 1 7.3,-1.51a18.6,18.6 0 0 1 17.14,11.46a19,19 0 0 1 -9.82,24.67z" fill="#6fa8bf" id="svg_45"/>
   <path class="cls-5" d="m128.58902,119.15506a13.1,13.1 0 0 0 -10.19,0.11a45.3,45.3 0 0 0 -8.62,4.84a2.71,2.71 0 0 0 -0.62,3.75a2.64,2.64 0 0 0 3.75,0.67a40.37,40.37 0 0 1 7.62,-4.27a7.81,7.81 0 0 1 6.11,-0.06a8,8 0 0 1 4.37,4.32a8.13,8.13 0 0 1 -4.22,10.6c-4.26,1.84 -7.27,4.3 -9,7.31s-1.71,5.75 -1.68,10.43a54.07,54.07 0 0 1 -0.42,8.6a2.7,2.7 0 0 0 2.22,3.07l0.4,0a2.67,2.67 0 0 0 2.63,-2.29a58,58 0 0 0 0.49,-9.46c0,-4.27 0,-6 1,-7.74c1.09,-2 3.24,-3.63 6.4,-5a13.53,13.53 0 0 0 7,-17.66a13.28,13.28 0 0 0 -7.24,-7.22z" fill="#6fa8bf" id="svg_46"/>
   <path class="cls-5" d="m105.43902,183.22506a41.24,41.24 0 0 1 -12.14,6.64a7.73,7.73 0 0 1 -2.68,0.48a8,8 0 0 1 -7.52,-5.37a8.1,8.1 0 0 1 4.81,-10.32c5.27,-1.9 8.85,-4.49 10.64,-7.68c1.62,-2.91 1.6,-5.91 1.57,-10c0,-5.18 -0.08,-11.62 3.74,-18.48a2.7,2.7 0 0 0 -1,-3.66a2.65,2.65 0 0 0 -3.63,1c-4.51,8.1 -4.46,15.65 -4.42,21.15c0,4.14 0,5.85 -0.89,7.37c-1.12,2 -3.81,3.82 -7.79,5.26a13.52,13.52 0 0 0 -8.07,17.2a13.35,13.35 0 0 0 12.54,8.94a13.19,13.19 0 0 0 4.47,-0.78a46.28,46.28 0 0 0 13.69,-7.53a2.72,2.72 0 0 0 0.41,-3.79a2.65,2.65 0 0 0 -3.73,-0.43z" fill="#6fa8bf" id="svg_47"/>
  </g>
  <g class="cls-6" clip-path="url(#clip-path-3)" id="svg_48">
   <path class="cls-7" d="m158.90902,236.42506a96.26,96.26 0 0 1 -13.15,10.52l-0.13,0.09a2.71,2.71 0 0 0 -0.83,3.65a2.66,2.66 0 0 0 2.28,1.29a2.71,2.71 0 0 0 1.39,-0.39l0.25,-0.17a102.79,102.79 0 0 0 13.85,-11.07a2.73,2.73 0 0 0 0.11,-3.81a2.65,2.65 0 0 0 -3.77,-0.11z" fill="#f2e41d" id="svg_49"/>
   <path class="cls-7" d="m145.55902,247.04506l0,0l0.06,0l-0.06,0z" fill="#f2e41d" id="svg_50"/>
   <path class="cls-7" d="m187.95902,192.82506a2.66,2.66 0 0 0 -3.33,1.78a96.77,96.77 0 0 1 -19.53,35.29a2.72,2.72 0 0 0 0.24,3.8a2.64,2.64 0 0 0 3.76,-0.25a102.48,102.48 0 0 0 14.14,-21.07a103.85,103.85 0 0 0 6.48,-16.18a2.7,2.7 0 0 0 -1.76,-3.37z" fill="#f2e41d" id="svg_51"/>
   <path class="cls-7" d="m69.33902,5.52506a2.73,2.73 0 0 0 1,-0.22c3.46,-1.5 7,-2.86 10.6,-4.06a2.7,2.7 0 0 0 1.69,-3.4a2.65,2.65 0 0 0 -3.36,-1.71c-3.72,1.24 -7.43,2.66 -11,4.22a2.7,2.7 0 0 0 -1.36,3.57a2.67,2.67 0 0 0 2.43,1.6z" fill="#f2e41d" id="svg_52"/>
   <path class="cls-7" d="m8.05902,50.52506a2.68,2.68 0 0 0 2,-0.95a158,158 0 0 1 47.24,-38a2.71,2.71 0 0 0 1.12,-3.63a2.67,2.67 0 0 0 -3.6,-1.14a163.68,163.68 0 0 0 -48.79,39.28a2.72,2.72 0 0 0 0.31,3.8a2.63,2.63 0 0 0 1.72,0.64z" fill="#f2e41d" id="svg_53"/>
   <path class="cls-7" d="m88.75902,9.99506a2.67,2.67 0 0 0 0.73,-0.1a123.16,123.16 0 0 1 33.42,-4.78a2.68,2.68 0 0 0 2.65,-2.7a2.68,2.68 0 0 0 -2.65,-2.68l0,0a128.13,128.13 0 0 0 -34.83,5a2.71,2.71 0 0 0 -1.83,3.33a2.66,2.66 0 0 0 2.51,1.93z" fill="#f2e41d" id="svg_54"/>
   <path class="cls-7" d="m72.46902,10.29506a159.26,159.26 0 0 0 -47.51,31.23a2.71,2.71 0 0 0 -0.09,3.8a2.64,2.64 0 0 0 3.76,0.1a153.62,153.62 0 0 1 45.92,-30.17a2.71,2.71 0 0 0 1.41,-3.54a2.66,2.66 0 0 0 -3.49,-1.42z" fill="#f2e41d" id="svg_55"/>
   <path class="cls-7" d="m-5.48098,88.80506a2.7,2.7 0 0 0 1.17,0.27a2.65,2.65 0 0 0 2.39,-1.55c1.13,-2.33 2.41,-4.79 3.8,-7.29a151.62,151.62 0 0 1 15.13,-22.26a2.71,2.71 0 0 0 -0.35,-3.79a2.65,2.65 0 0 0 -3.75,0.34a157.21,157.21 0 0 0 -15.67,23.1c-1.44,2.59 -2.77,5.14 -3.94,7.56a2.71,2.71 0 0 0 1.22,3.62z" fill="#f2e41d" id="svg_56"/>
   <path class="cls-7" d="m-2.70098,115.27506a32.67,32.67 0 0 0 4.07,-7.88a134,134 0 0 1 9.78,-21.87c15.22,-27.31 38,-47.63 67.59,-60.42a113.38,113.38 0 0 1 71,-6.23a2.66,2.66 0 0 0 3.2,-2a2.69,2.69 0 0 0 -2,-3.24a118.71,118.71 0 0 0 -74.29,6.56c-30.74,13.26 -54.33,34.33 -70.13,62.72a139,139 0 0 0 -10.18,22.71a26.75,26.75 0 0 1 -3.43,6.55s-1.58,2.6 0.48,3.93s3.91,-0.83 3.91,-0.83z" fill="#f2e41d" id="svg_57"/>
   <path class="cls-7" d="m-6.09098,137.23506a2.65,2.65 0 0 0 3.56,-1.24a103.57,103.57 0 0 1 11.79,-19a2.77,2.77 0 0 0 0.47,-0.9a123.37,123.37 0 0 1 10.7,-25.25c14,-25.18 35,-43.95 62.48,-55.79a103,103 0 0 1 85.35,1.75a2.63,2.63 0 0 0 3.54,-1.28a2.71,2.71 0 0 0 -1.26,-3.59a108.23,108.23 0 0 0 -89.72,-1.84c-28.53,12.31 -50.41,31.86 -65,58.1a129,129 0 0 0 -11,25.89a109.33,109.33 0 0 0 -12.11,19.55a2.71,2.71 0 0 0 1.2,3.6z" fill="#f2e41d" id="svg_58"/>
   <path class="cls-7" d="m19.40902,121.16506a112.1,112.1 0 0 1 10.29,-25c12.86,-23.11 32.21,-40.32 57.39,-51.2a91.57,91.57 0 0 1 36.53,-7.55a92.94,92.94 0 0 1 57,19.63a2.64,2.64 0 0 0 3.69,-0.52a2.71,2.71 0 0 0 -0.48,-3.78a98.25,98.25 0 0 0 -60.21,-20.75a96.75,96.75 0 0 0 -38.62,8c-26.32,11.37 -46.48,29.36 -59.94,53.53a117.34,117.34 0 0 0 -10.63,25.65a99.8,99.8 0 0 0 -21.76,53.15a2.67,2.67 0 0 0 2.38,2.94l0.27,0a2.67,2.67 0 0 0 2.64,-2.43a94.51,94.51 0 0 1 20.95,-50.67a2.66,2.66 0 0 0 0.5,-1z" fill="#f2e41d" id="svg_59"/>
   <path class="cls-7" d="m12.90902,210.28506a84.31,84.31 0 0 1 15.59,-82.94a2.78,2.78 0 0 0 0.58,-1.1a102,102 0 0 1 9.89,-24.82c11.69,-21 29.28,-36.63 52.29,-46.55a81.86,81.86 0 0 1 96.18,23.84a2.64,2.64 0 0 0 3.74,0.38a2.71,2.71 0 0 0 0.38,-3.79a87.14,87.14 0 0 0 -102.39,-25.39c-24.11,10.4 -42.55,26.84 -54.84,48.87a107.13,107.13 0 0 0 -10.25,25.5a89.75,89.75 0 0 0 -16.17,87.8a88.31,88.31 0 0 0 16.58,28.58a2.65,2.65 0 0 0 3.76,0.26a2.72,2.72 0 0 0 0.25,-3.8a82.8,82.8 0 0 1 -15.59,-26.84z" fill="#f2e41d" id="svg_60"/>
   <path class="cls-7" d="m172.68902,209.40506a98.31,98.31 0 0 0 6.91,-15.19a2.71,2.71 0 0 0 -1.61,-3.44a2.64,2.64 0 0 0 -3.4,1.63a92.94,92.94 0 0 1 -6.53,14.34c-11.49,20.57 -29.43,35.37 -53.3,44a71.17,71.17 0 0 1 -24.14,4.22a72,72 0 0 1 -67.71,-48.29a74.14,74.14 0 0 1 15.21,-74.09a2.62,2.62 0 0 0 0.65,-1.23a91.81,91.81 0 0 1 9.45,-24.64c10.5,-18.85 26.38,-33 47.18,-41.94a70.91,70.91 0 0 1 28.19,-5.82a71.92,71.92 0 0 1 65.47,42.74a2.66,2.66 0 0 0 3.53,1.35a2.72,2.72 0 0 0 1.32,-3.52a77.27,77.27 0 0 0 -70.29,-46a76.13,76.13 0 0 0 -30.28,6.26c-21.9,9.49 -38.63,24.38 -49.73,44.28a97.1,97.1 0 0 0 -9.84,25.38a78.62,78.62 0 0 0 -15.86,79.08a77.39,77.39 0 0 0 72.7,51.85a76.3,76.3 0 0 0 25.92,-4.53c25.13,-9.11 44.02,-24.72 56.16,-46.44z" fill="#f2e41d" id="svg_61"/>
   <path class="cls-7" d="m192.60902,160.10506a2.66,2.66 0 0 0 -3.52,1.36a72.78,72.78 0 0 1 -10.44,16.91a2.71,2.71 0 0 0 0.34,3.79a2.62,2.62 0 0 0 1.7,0.62a2.68,2.68 0 0 0 2.05,-1a78.32,78.32 0 0 0 11.17,-18.12a2.71,2.71 0 0 0 -1.3,-3.56z" fill="#f2e41d" id="svg_62"/>
   <path class="cls-7" d="m123.61902,64.33506a65.53,65.53 0 0 0 -26.1,5.4c-19.7,8.49 -34.71,21.79 -44.61,39.62a86.29,86.29 0 0 0 -9.36,25.35a68.16,68.16 0 0 0 -15.64,70.16a66.72,66.72 0 0 0 62.67,44.71a65.76,65.76 0 0 0 22.34,-3.91c22.64,-8.17 39.62,-22.15 50.47,-41.56a85.79,85.79 0 0 0 9.85,-27.58a68.22,68.22 0 0 0 11.59,-71.23a66.44,66.44 0 0 0 -61.21,-40.96zm45.16,109.1a2.75,2.75 0 0 0 -0.66,1.37a80.71,80.71 0 0 1 -9.32,26.65c-10.21,18.25 -26.23,31.42 -47.63,39.13a60.29,60.29 0 0 1 -20.55,3.6a61.38,61.38 0 0 1 -57.66,-41.13a62.73,62.73 0 0 1 14.89,-65.1a2.64,2.64 0 0 0 0.75,-1.4a80.9,80.9 0 0 1 8.92,-24.55c9.33,-16.74 23.49,-29.3 42.09,-37.32a60.18,60.18 0 0 1 24,-5a61.13,61.13 0 0 1 56.3,37.67a62.74,62.74 0 0 1 -11.13,66.08z" fill="#f2e41d" id="svg_63"/>
   <path class="cls-7" d="m123.61902,75.10506a55,55 0 0 0 -21.92,4.53c-17.5,7.55 -30.8,19.33 -39.54,35a76.27,76.27 0 0 0 -8.78,25.45a57.38,57.38 0 0 0 -15.41,61.15a56.07,56.07 0 0 0 52.65,37.56a55.2,55.2 0 0 0 18.77,-3.27c20.15,-7.27 35.22,-19.62 44.78,-36.72a75.8,75.8 0 0 0 9.06,-27.28a57.49,57.49 0 0 0 11.81,-62.07a55.82,55.82 0 0 0 -51.42,-34.35zm35.23,93.23a2.7,2.7 0 0 0 -0.78,1.6a70.35,70.35 0 0 1 -8.54,26.21c-8.91,15.94 -23,27.48 -41.93,34.3a50,50 0 0 1 -17,3a50.7,50.7 0 0 1 -47.63,-34a51.88,51.88 0 0 1 14.63,-55.92a2.7,2.7 0 0 0 0.89,-1.64a71.11,71.11 0 0 1 8.31,-24.58c8.15,-14.63 20.59,-25.63 37,-32.7a49.61,49.61 0 0 1 19.82,-4.08a50.49,50.49 0 0 1 46.52,31.1a52,52 0 0 1 -11.29,56.71z" fill="#f2e41d" id="svg_64"/>
   <path class="cls-7" d="m123.61902,85.87506a44.42,44.42 0 0 0 -17.71,3.65c-15.29,6.59 -26.88,16.82 -34.45,30.39a66.67,66.67 0 0 0 -8.06,25.78a46.28,46.28 0 0 0 -15.4,51.93a45.38,45.38 0 0 0 42.62,30.41a44.73,44.73 0 0 0 15.19,-2.66c17.68,-6.38 30.83,-17.1 39.09,-31.88a66,66 0 0 0 8.19,-27.11a46.38,46.38 0 0 0 12.15,-52.69a45.17,45.17 0 0 0 -41.62,-27.82zm25.22,77.08a2.7,2.7 0 0 0 -1,1.9a60.94,60.94 0 0 1 -7.6,26c-7.62,13.62 -19.81,23.53 -36.24,29.46a39.6,39.6 0 0 1 -13.41,2.34a40,40 0 0 1 -37.6,-26.82a40.8,40.8 0 0 1 14.42,-46.45a2.74,2.74 0 0 0 1.11,-1.94a61.74,61.74 0 0 1 7.52,-24.85c7,-12.52 17.71,-22 31.89,-28.09a39.29,39.29 0 0 1 15.66,-3.24a39.88,39.88 0 0 1 36.73,24.55a40.92,40.92 0 0 1 -11.48,47.14z" fill="#f2e41d" id="svg_65"/>
   <path class="cls-7" d="m123.61902,96.64506a2.69,2.69 0 0 0 0,5.38a29.24,29.24 0 0 1 26.93,18a29.91,29.91 0 0 1 -11.84,37a2.73,2.73 0 0 0 -1.29,2.29c0,7 -0.82,16.22 -6.42,26.22c-6.32,11.31 -16.6,19.59 -30.55,24.62a28.74,28.74 0 0 1 -9.83,1.72a29.36,29.36 0 0 1 -27.58,-19.67a29.8,29.8 0 0 1 14.37,-36.38a2.69,2.69 0 0 0 1.5,-2.3a53.08,53.08 0 0 1 6.47,-25.6c5.8,-10.41 14.82,-18.3 26.8,-23.47a2.7,2.7 0 0 0 1.4,-3.53a2.65,2.65 0 0 0 -3.49,-1.43c-13.08,5.65 -23,14.32 -29.34,25.78a57.48,57.48 0 0 0 -7.12,26.56a35.26,35.26 0 0 0 -15.56,42.23a34.69,34.69 0 0 0 32.59,23.25a34.18,34.18 0 0 0 11.62,-2c15.19,-5.48 26.43,-14.57 33.4,-27a56.6,56.6 0 0 0 7.08,-27.36a35.38,35.38 0 0 0 12.73,-42.92a34.55,34.55 0 0 0 -31.87,-21.39z" fill="#f2e41d" id="svg_66"/>
   <path class="cls-7" d="m133.01902,153.93506a24.36,24.36 0 0 0 12.64,-31.79a23.93,23.93 0 0 0 -22,-14.73a23.57,23.57 0 0 0 -9.39,1.94c-10.88,4.69 -19,11.81 -24.25,21.16c-5.91,10.6 -5.84,20.57 -5.79,26.52l0,1.74c-0.41,0.19 -0.94,0.42 -1.62,0.66a24.33,24.33 0 0 0 -14.51,31a24,24 0 0 0 22.52,16.09a23.51,23.51 0 0 0 8,-1.41c12.72,-4.58 22,-12.05 27.71,-22.2c5.83,-10.42 5.77,-19.91 5.72,-26.22c0,-0.56 0,-1.49 0,-2.29c0.28,-0.16 0.59,-0.31 0.97,-0.47zm-2.11,-4.95a11.2,11.2 0 0 0 -3.23,1.94a2.7,2.7 0 0 0 -0.85,1.7c-0.09,0.92 -0.09,2.52 -0.08,4.1c0,5.71 0.1,14.34 -5,23.51c-5,9 -13.39,15.64 -24.86,19.78a18.38,18.38 0 0 1 -6.26,1.1a18.69,18.69 0 0 1 -17.55,-12.53a18.93,18.93 0 0 1 11.28,-24.06a16.45,16.45 0 0 0 4,-1.94a2.72,2.72 0 0 0 1.12,-2c0.06,-1 0,-2.58 0,-3.53c0,-5.42 -0.1,-14.48 5.11,-23.84c4.62,-8.29 11.92,-14.63 21.7,-18.85a18.36,18.36 0 0 1 7.3,-1.51a18.6,18.6 0 0 1 17.14,11.46a19,19 0 0 1 -9.82,24.67z" fill="#f2e41d" id="svg_67"/>
   <path class="cls-7" d="m128.58902,119.15506a13.1,13.1 0 0 0 -10.19,0.11a45.3,45.3 0 0 0 -8.62,4.84a2.71,2.71 0 0 0 -0.62,3.75a2.64,2.64 0 0 0 3.75,0.67a40.37,40.37 0 0 1 7.62,-4.27a7.81,7.81 0 0 1 6.11,-0.06a8,8 0 0 1 4.37,4.32a8.13,8.13 0 0 1 -4.22,10.6c-4.26,1.84 -7.27,4.3 -9,7.31s-1.71,5.75 -1.68,10.43a54.07,54.07 0 0 1 -0.42,8.6a2.7,2.7 0 0 0 2.22,3.07l0.4,0a2.67,2.67 0 0 0 2.63,-2.29a58,58 0 0 0 0.49,-9.46c0,-4.27 0,-6 1,-7.74c1.09,-2 3.24,-3.63 6.4,-5a13.53,13.53 0 0 0 7,-17.66a13.28,13.28 0 0 0 -7.24,-7.22z" fill="#f2e41d" id="svg_68"/>
   <path class="cls-7" d="m105.43902,183.22506a41.24,41.24 0 0 1 -12.14,6.64a7.73,7.73 0 0 1 -2.68,0.48a8,8 0 0 1 -7.52,-5.37a8.1,8.1 0 0 1 4.81,-10.32c5.27,-1.9 8.85,-4.49 10.64,-7.68c1.62,-2.91 1.6,-5.91 1.57,-10c0,-5.18 -0.08,-11.62 3.74,-18.48a2.7,2.7 0 0 0 -1,-3.66a2.65,2.65 0 0 0 -3.63,1c-4.51,8.1 -4.46,15.65 -4.42,21.15c0,4.14 0,5.85 -0.89,7.37c-1.12,2 -3.81,3.82 -7.79,5.26a13.52,13.52 0 0 0 -8.07,17.2a13.35,13.35 0 0 0 12.54,8.94a13.19,13.19 0 0 0 4.47,-0.78a46.28,46.28 0 0 0 13.69,-7.53a2.72,2.72 0 0 0 0.41,-3.79a2.65,2.65 0 0 0 -3.73,-0.43z" fill="#f2e41d" id="svg_69"/>
  </g>
 </g>
</svg>